<svg width="212" height="279" viewBox="0 0 212 279" fill="none" xmlns="http://www.w3.org/2000/svg">
<path d="M161.349 38.1549C162.446 37.8001 164.091 33.7663 164.091 33.7663C164.091 33.7663 165.899 37.5644 167.566 38.5206C169.133 39.4196 172.869 39.4349 172.869 39.4349C172.869 39.4349 170.491 42.7263 170.491 43.6406C170.491 44.5549 173.051 48.7606 173.051 48.7606C173.051 48.7606 169.211 48.3949 168.114 48.9435C167.017 49.492 164.091 53.5149 164.091 53.5149C164.091 53.5149 163.177 49.6749 160.617 48.7606C158.057 47.8463 154.949 47.8463 154.949 47.8463C154.949 47.8463 157.691 44.7377 157.691 43.2749C157.691 41.812 155.68 39.0692 155.68 39.0692C155.68 39.0692 160.251 38.5097 161.349 38.1549Z" fill="white"/>
<path d="M182.194 33.0349C182.56 33.5835 182.011 34.6806 182.011 34.6806L180.366 37.972C180.366 37.972 179.077 41.6647 177.074 41.9949C176.581 42.0762 176.343 41.9949 175.794 41.9949C175.246 41.9949 174.88 41.4463 174.88 41.4463L174.697 40.3492V39.252C174.697 39.252 174.697 38.7035 175.063 37.972C175.429 37.2406 175.063 36.8749 175.063 36.8749C175.063 36.8749 174.88 36.5092 174.149 36.3263C173.417 36.1435 171.954 36.692 171.223 36.1435C170.491 35.5949 170.674 35.412 170.674 34.8635C170.674 34.3149 171.771 33.4006 171.771 33.4006C171.771 33.4006 172.32 32.6692 173.234 32.4863C174.149 32.3035 175.429 32.4863 176.891 32.4863H179.817C180.549 32.4863 181.829 32.4863 182.194 33.0349Z" fill="white"/>
<path d="M164.464 22.9282C165.123 22.9088 165.763 23.9554 165.763 23.9554L167.682 27.0952C167.682 27.0952 170.131 30.1448 169.35 32.0183C169.157 32.4797 168.962 32.6386 168.671 33.1038C168.381 33.569 167.722 33.5885 167.722 33.5885L166.694 33.1621L165.764 32.5807C165.764 32.5807 165.299 32.29 164.872 31.5923C164.446 30.8946 163.942 31.0109 163.942 31.0109C163.942 31.0109 163.535 30.9722 162.992 31.4956C162.449 32.019 162.139 33.5502 161.286 33.8798C160.434 34.2094 160.375 33.9574 159.91 33.6667C159.445 33.376 159.251 31.9611 159.251 31.9611C159.251 31.9611 158.921 31.1083 159.251 30.236C159.58 29.3638 160.414 28.3752 161.189 27.1346L162.739 24.6535C163.127 24.0332 163.805 22.9477 164.464 22.9282Z" fill="white"/>
<path d="M163.975 64.2289C164.634 64.2483 165.274 63.2017 165.274 63.2017L167.193 60.0619C167.193 60.0619 169.642 57.0123 168.861 55.1388C168.668 54.6774 168.473 54.5185 168.182 54.0533C167.892 53.5881 167.233 53.5686 167.233 53.5686L166.205 53.9949L165.275 54.5763C165.275 54.5763 164.81 54.867 164.383 55.5648C163.957 56.2625 163.453 56.1462 163.453 56.1462C163.453 56.1462 163.046 56.1849 162.503 55.6615C161.96 55.1381 161.65 53.6069 160.798 53.2773C159.945 52.9477 159.887 53.1997 159.421 53.4904C158.956 53.7811 158.762 55.196 158.762 55.196C158.762 55.196 158.433 56.0488 158.762 56.921C159.091 57.7933 159.925 58.7819 160.7 60.0225L162.25 62.5036C162.638 63.1239 163.316 64.2094 163.975 64.2289Z" fill="white"/>
<path d="M146.48 33.1085C146.114 33.6504 146.664 34.7341 146.664 34.7341L148.315 37.9854C148.315 37.9854 149.607 41.633 151.617 41.9592C152.111 42.0395 152.35 41.9592 152.901 41.9592C153.451 41.9592 153.818 41.4173 153.818 41.4173L154.001 40.3335V39.2498C154.001 39.2498 154.001 38.7079 153.634 37.9854C153.267 37.2629 153.634 36.9016 153.634 36.9016C153.634 36.9016 153.818 36.5404 154.552 36.3598C155.285 36.1791 156.753 36.721 157.486 36.1791C158.22 35.6373 158.037 35.4566 158.037 34.9147C158.037 34.3729 156.936 33.4697 156.936 33.4697C156.936 33.4697 156.386 32.7472 155.469 32.5666C154.552 32.386 153.267 32.5666 151.8 32.5666H148.865C148.131 32.5666 146.847 32.5666 146.48 33.1085Z" fill="white"/>
<path d="M182.068 54.1727C182.435 53.6309 181.885 52.5471 181.885 52.5471L180.234 49.2958C180.234 49.2958 178.941 45.6482 176.932 45.322C176.437 45.2417 176.198 45.322 175.648 45.322C175.098 45.322 174.731 45.8639 174.731 45.8639L174.547 46.9477V48.0314C174.547 48.0314 174.547 48.5733 174.914 49.2958C175.281 50.0183 174.914 50.3796 174.914 50.3796C174.914 50.3796 174.731 50.7408 173.997 50.9215C173.263 51.1021 171.796 50.5602 171.062 51.1021C170.328 51.644 170.512 51.8246 170.512 52.3665C170.512 52.9083 171.612 53.8115 171.612 53.8115C171.612 53.8115 172.163 54.534 173.08 54.7146C173.997 54.8952 175.281 54.7146 176.749 54.7146H179.684C180.417 54.7146 181.701 54.7146 182.068 54.1727Z" fill="white"/>
<path d="M146.115 53.807C145.748 53.2651 146.298 52.1814 146.298 52.1814L147.949 48.9301C147.949 48.9301 149.242 45.2825 151.251 44.9563C151.746 44.876 151.985 44.9563 152.535 44.9563C153.085 44.9563 153.452 45.4982 153.452 45.4982L153.635 46.5819V47.6657C153.635 47.6657 153.635 48.2076 153.269 48.9301C152.902 49.6526 153.269 50.0139 153.269 50.0139C153.269 50.0139 153.452 50.3751 154.186 50.5557C154.92 50.7364 156.387 50.1945 157.121 50.7364C157.854 51.2782 157.671 51.4589 157.671 52.0008C157.671 52.5426 156.57 53.4458 156.57 53.4458C156.57 53.4458 156.02 54.1683 155.103 54.3489C154.186 54.5295 152.902 54.3489 151.434 54.3489H148.499C147.766 54.3489 146.482 54.3489 146.115 53.807Z" fill="white"/>
<path d="M208.709 50.696C207.246 50.8789 202.674 50.8789 201.577 50.5132C200.48 50.1475 200.663 49.7817 199.749 48.5017C198.834 47.2217 198.795 46.856 197.92 46.4903C197.045 46.1246 196.457 46.856 196.823 47.7703L197.92 50.5132C197.92 50.5132 198.651 52.5246 198.834 53.256C199.017 53.9875 199.383 54.5361 198.834 55.0846C198.286 55.6332 197.371 55.2675 195.543 55.2675C193.714 55.2675 193.349 54.3532 193.349 54.3532L192.251 52.3418L190.24 47.7703L189.143 46.3075C189.143 46.3075 188.411 45.3932 187.863 45.576C187.314 45.7589 187.863 46.6732 188.229 47.4046C188.594 48.136 189.326 49.7817 189.509 50.1475C189.691 50.5132 190.423 52.3418 189.691 52.5246C188.96 52.7075 186.217 52.7075 185.12 52.3418C184.023 51.976 182.926 49.416 182.926 49.416L181.463 45.3932V41.9189L183.291 38.0789L185.669 35.1532C185.669 35.1532 188.411 34.7875 189.509 35.1532C190.606 35.5189 189.143 37.7132 189.143 37.7132L188.411 39.3589C188.411 39.3589 187.863 40.8218 188.229 41.3703C188.594 41.9189 189.509 41.3703 189.509 41.3703L191.337 37.3475L192.617 35.7018C192.617 35.7018 193.166 32.9589 194.629 32.776C196.091 32.5932 199.2 32.2275 199.2 32.776C199.2 33.3246 199.566 34.2389 199.566 34.2389L199.2 35.7018L197.737 37.7132C197.737 37.7132 196.274 41.3703 196.823 41.9189C197.371 42.4675 198.651 41.9189 198.651 41.9189C198.651 41.9189 198.651 41.0046 199.2 40.0903C199.749 39.1761 200.114 37.7132 201.394 37.3475C202.674 36.9818 203.223 37.3475 204.137 37.3475C205.051 37.3475 207.902 37.099 209.623 38.4446C211.411 39.8425 212 41.3703 212 43.7475C212 46.1246 211.634 46.6732 211.451 47.7703C211.269 48.8675 210.171 50.5132 208.709 50.696Z" fill="white"/>
<path d="M147.679 1.11079C148.568 2.28623 150.854 6.2452 151.086 7.37821C151.318 8.51122 150.91 8.53572 150.258 9.96751C149.607 11.3993 149.31 11.616 149.431 12.5568C149.552 13.4976 150.479 13.6408 151.088 12.867L152.915 10.5454C152.915 10.5454 154.291 8.90623 154.833 8.38216C155.375 7.85809 155.667 7.26708 156.416 7.46787C157.166 7.66866 157.306 8.64331 158.22 10.2269C159.135 11.8105 158.526 12.5844 158.526 12.5844L157.332 14.5402L154.379 18.5679L153.661 20.2495C153.661 20.2495 153.235 21.3401 153.667 21.7237C154.1 22.1074 154.618 21.1751 155.068 20.4927C155.519 19.8103 156.578 18.354 156.804 18.0128C157.029 17.6715 158.247 16.1238 158.771 16.6658C159.295 17.2078 160.666 19.5832 160.898 20.7162C161.13 21.8492 159.462 24.0794 159.462 24.0794L156.709 27.3577L153.7 29.0948L149.46 29.4312L145.738 28.8354C145.738 28.8354 144.05 26.6429 143.818 25.5099C143.586 24.3769 146.218 24.5466 146.218 24.5466L148.009 24.3572C148.009 24.3572 149.55 24.1008 149.842 23.5098C150.135 22.9188 149.202 22.4013 149.202 22.4013L144.804 22.8292L142.739 22.5435C142.739 22.5435 140.089 23.4399 139.199 22.2644C138.31 21.089 136.439 18.5797 136.914 18.3054C137.389 18.0312 137.998 17.2573 137.998 17.2573L139.448 16.8426L141.921 17.1037C141.921 17.1037 145.819 16.542 146.02 15.7927C146.221 15.0433 145.106 14.2091 145.106 14.2091C145.106 14.2091 144.314 14.6662 143.248 14.6483C142.182 14.6304 140.732 15.0451 139.776 14.1194C138.819 13.1938 138.861 12.5358 138.404 11.744C137.947 10.9522 136.307 8.60805 136.611 6.44469C136.928 4.19744 137.957 2.92318 140.015 1.73461C142.074 0.546038 142.732 0.588474 143.773 0.198261C144.815 -0.191951 146.789 -0.064655 147.679 1.11079Z" fill="white"/>
<path d="M181.594 1.84222C180.704 3.01766 178.418 6.97663 178.186 8.10964C177.955 9.24265 178.363 9.26715 179.014 10.6989C179.666 12.1307 179.963 12.3475 179.842 13.2882C179.721 14.229 178.794 14.3723 178.185 13.5984L176.358 11.2768C176.358 11.2768 174.982 9.63766 174.44 9.11359C173.898 8.58951 173.605 7.9985 172.856 8.1993C172.107 8.40009 171.966 9.37474 171.052 10.9583C170.138 12.5419 170.747 13.3158 170.747 13.3158L171.94 15.2717L174.893 19.2993L175.612 20.9809C175.612 20.9809 176.038 22.0715 175.605 22.4551C175.172 22.8388 174.655 21.9066 174.204 21.2241C173.754 20.5417 172.694 19.0854 172.469 18.7442C172.244 18.403 171.026 16.8552 170.502 17.3973C169.978 17.9393 168.606 20.3146 168.374 21.4477C168.142 22.5807 169.811 24.8108 169.811 24.8108L172.563 28.0891L175.572 29.8263L179.812 30.1627L183.534 29.5668C183.534 29.5668 185.222 27.3743 185.454 26.2413C185.686 25.1083 183.054 25.278 183.054 25.278L181.263 25.0886C181.263 25.0886 179.722 24.8323 179.43 24.2413C179.138 23.6503 180.07 23.1327 180.07 23.1327L184.468 23.5606L186.534 23.2749C186.534 23.2749 189.183 24.1713 190.073 22.9958C190.963 21.8204 192.834 19.3112 192.359 19.0369C191.884 18.7626 191.275 17.9887 191.275 17.9887L189.825 17.574L187.352 17.8352C187.352 17.8352 183.453 17.2735 183.252 16.5241C183.051 15.7747 184.166 14.9405 184.166 14.9405C184.166 14.9405 184.958 15.3977 186.024 15.3797C187.09 15.3618 188.54 15.7765 189.497 14.8508C190.454 13.9252 190.411 13.2672 190.868 12.4755C191.325 11.6837 192.966 9.33948 192.661 7.17612C192.344 4.92887 191.316 3.65461 189.257 2.46604C187.199 1.27747 186.541 1.3199 185.499 0.92969C184.457 0.539477 182.484 0.666774 181.594 1.84222Z" fill="white"/>
<path d="M180.131 86.0324C179.241 84.8569 176.955 80.898 176.724 79.7649C176.492 78.6319 176.9 78.6074 177.551 77.1756C178.203 75.7438 178.5 75.5271 178.379 74.5863C178.258 73.6456 177.331 73.5023 176.722 74.2762L174.895 76.5978C174.895 76.5978 173.519 78.2369 172.977 78.761C172.435 79.2851 172.143 79.8761 171.393 79.6753C170.644 79.4745 170.503 78.4998 169.589 76.9163C168.675 75.3327 169.284 74.5588 169.284 74.5588L170.477 72.6029L173.43 68.5753L174.149 66.8937C174.149 66.8937 174.575 65.8031 174.142 65.4195C173.71 65.0358 173.192 65.968 172.741 66.6505C172.291 67.3329 171.231 68.7892 171.006 69.1304C170.781 69.4716 169.563 71.0193 169.039 70.4773C168.515 69.9353 167.143 67.5599 166.911 66.4269C166.68 65.2939 168.348 63.0638 168.348 63.0638L171.101 59.7855L174.109 58.0483L178.349 57.7119L182.071 58.3077C182.071 58.3077 183.76 60.5003 183.991 61.6333C184.223 62.7663 181.592 62.5966 181.592 62.5966L179.801 62.786C179.801 62.786 178.259 63.0423 177.967 63.6333C177.675 64.2243 178.607 64.7418 178.607 64.7418L183.005 64.314L185.071 64.5997C185.071 64.5997 187.72 63.7033 188.61 64.8787C189.5 66.0542 191.371 68.5634 190.896 68.8377C190.421 69.112 189.812 69.8859 189.812 69.8859L188.362 70.3006L185.889 70.0394C185.889 70.0394 181.99 70.6011 181.789 71.3505C181.589 72.0998 182.704 72.9341 182.704 72.9341C182.704 72.9341 183.495 72.4769 184.561 72.4949C185.628 72.5128 187.077 72.0981 188.034 73.0237C188.991 73.9494 188.948 74.6073 189.405 75.3991C189.863 76.1909 191.503 78.5351 191.198 80.6985C190.881 82.9457 189.853 84.22 187.794 85.4085C185.736 86.5971 185.078 86.5547 184.036 86.9449C182.995 87.3351 181.021 87.2078 180.131 86.0324Z" fill="white"/>
<path d="M146.947 86.0324C147.837 84.8569 150.123 80.898 150.355 79.7649C150.586 78.6319 150.178 78.6074 149.527 77.1756C148.876 75.7438 148.578 75.5271 148.699 74.5863C148.82 73.6456 149.747 73.5023 150.356 74.2762L152.183 76.5978C152.183 76.5978 153.559 78.2369 154.101 78.761C154.643 79.2851 154.936 79.8761 155.685 79.6753C156.434 79.4745 156.575 78.4998 157.489 76.9163C158.403 75.3327 157.794 74.5588 157.794 74.5588L156.601 72.6029L153.648 68.5753L152.929 66.8937C152.929 66.8937 152.503 65.8031 152.936 65.4195C153.369 65.0358 153.886 65.968 154.337 66.6505C154.787 67.3329 155.847 68.7892 156.072 69.1304C156.297 69.4716 157.515 71.0193 158.039 70.4773C158.563 69.9353 159.935 67.5599 160.167 66.4269C160.399 65.2939 158.73 63.0638 158.73 63.0638L155.978 59.7855L152.969 58.0483L148.729 57.7119L145.007 58.3077C145.007 58.3077 143.319 60.5003 143.087 61.6333C142.855 62.7663 145.487 62.5966 145.487 62.5966L147.278 62.786C147.278 62.786 148.819 63.0423 149.111 63.6333C149.403 64.2243 148.471 64.7418 148.471 64.7418L144.073 64.314L142.008 64.5997C142.008 64.5997 139.358 63.7033 138.468 64.8787C137.578 66.0542 135.707 68.5634 136.182 68.8377C136.657 69.112 137.266 69.8859 137.266 69.8859L138.716 70.3006L141.189 70.0394C141.189 70.0394 145.088 70.6011 145.289 71.3505C145.49 72.0998 144.375 72.9341 144.375 72.9341C144.375 72.9341 143.583 72.4769 142.517 72.4949C141.451 72.5128 140.001 72.0981 139.044 73.0237C138.087 73.9494 138.13 74.6073 137.673 75.3991C137.216 76.1909 135.575 78.5351 135.88 80.6985C136.197 82.9457 137.225 84.22 139.284 85.4085C141.343 86.5971 142 86.5547 143.042 86.9449C144.084 87.3351 146.057 87.2078 146.947 86.0324Z" fill="white"/>
<path d="M119.291 49.5989C120.754 49.7817 125.326 49.7817 126.423 49.416C127.52 49.0503 127.337 48.6846 128.251 47.4046C129.166 46.1246 129.205 45.7589 130.08 45.3932C130.955 45.0275 131.543 45.7589 131.177 46.6732L130.08 49.416C130.08 49.416 129.349 51.4275 129.166 52.1589C128.983 52.8903 128.617 53.4389 129.166 53.9875C129.714 54.5361 130.629 54.1703 132.457 54.1703C134.286 54.1703 134.651 53.256 134.651 53.256L135.749 51.2446L137.76 46.6732L138.857 45.2103C138.857 45.2103 139.589 44.296 140.137 44.4789C140.686 44.6617 140.137 45.576 139.771 46.3075C139.406 47.0389 138.674 48.6846 138.491 49.0503C138.309 49.416 137.577 51.2446 138.309 51.4275C139.04 51.6103 141.783 51.6103 142.88 51.2446C143.977 50.8789 145.074 48.3189 145.074 48.3189L146.537 44.296V40.8218L144.709 36.9818L142.331 34.0561C142.331 34.0561 139.589 33.6903 138.491 34.0561C137.394 34.4218 138.857 36.6161 138.857 36.6161L139.589 38.2618C139.589 38.2618 140.137 39.7246 139.771 40.2732C139.406 40.8218 138.491 40.2732 138.491 40.2732L136.663 36.2504L135.383 34.6046C135.383 34.6046 134.834 31.8618 133.371 31.6789C131.909 31.496 128.8 31.1303 128.8 31.6789C128.8 32.2275 128.434 33.1418 128.434 33.1418L128.8 34.6046L130.263 36.616C130.263 36.616 131.726 40.2732 131.177 40.8218C130.629 41.3703 129.349 40.8218 129.349 40.8218C129.349 40.8218 129.349 39.9075 128.8 38.9932C128.251 38.0789 127.886 36.6161 126.606 36.2504C125.326 35.8846 124.777 36.2504 123.863 36.2504C122.949 36.2504 120.098 36.0018 118.377 37.3475C116.589 38.7453 116 40.2732 116 42.6503C116 45.0275 116.366 45.576 116.549 46.6732C116.731 47.7703 117.829 49.416 119.291 49.5989Z" fill="white"/>
<path d="M168.232 140.437C168.964 140.2 170.061 137.511 170.061 137.511C170.061 137.511 171.266 140.043 172.377 140.68C173.422 141.28 175.912 141.29 175.912 141.29C175.912 141.29 174.328 143.484 174.328 144.094C174.328 144.703 176.034 147.507 176.034 147.507C176.034 147.507 173.474 147.263 172.743 147.629C172.011 147.995 170.061 150.677 170.061 150.677C170.061 150.677 169.451 148.117 167.745 147.507C166.038 146.898 163.966 146.898 163.966 146.898C163.966 146.898 165.794 144.825 165.794 143.85C165.794 142.875 164.453 141.046 164.453 141.046C164.453 141.046 167.501 140.673 168.232 140.437Z" fill="white"/>
<path d="M182.13 137.023C182.373 137.389 182.008 138.12 182.008 138.12L180.91 140.315C180.91 140.315 180.051 142.776 178.716 142.997C178.387 143.051 178.229 142.997 177.863 142.997C177.497 142.997 177.253 142.631 177.253 142.631L177.131 141.899V141.168C177.131 141.168 177.131 140.802 177.375 140.315C177.619 139.827 177.375 139.583 177.375 139.583C177.375 139.583 177.253 139.339 176.766 139.218C176.278 139.096 175.303 139.461 174.815 139.096C174.328 138.73 174.45 138.608 174.45 138.242C174.45 137.877 175.181 137.267 175.181 137.267C175.181 137.267 175.547 136.779 176.156 136.658C176.766 136.536 177.619 136.658 178.594 136.658H180.545C181.032 136.658 181.886 136.658 182.13 137.023Z" fill="white"/>
<path d="M170.309 130.285C170.749 130.273 171.175 130.97 171.175 130.97L172.455 133.063C172.455 133.063 174.087 135.097 173.566 136.346C173.438 136.653 173.308 136.759 173.114 137.069C172.92 137.379 172.481 137.392 172.481 137.392L171.796 137.108L171.176 136.72C171.176 136.72 170.866 136.527 170.581 136.062C170.297 135.596 169.961 135.674 169.961 135.674C169.961 135.674 169.69 135.648 169.328 135.997C168.966 136.346 168.759 137.367 168.191 137.587C167.622 137.806 167.584 137.638 167.273 137.444C166.963 137.251 166.834 136.307 166.834 136.307C166.834 136.307 166.614 135.739 166.834 135.157C167.054 134.576 167.609 133.917 168.126 133.09L169.16 131.436C169.418 131.022 169.87 130.298 170.309 130.285Z" fill="white"/>
<path d="M169.984 157.819C170.423 157.832 170.849 157.134 170.849 157.134L172.129 155.041C172.129 155.041 173.761 153.008 173.24 151.759C173.112 151.452 172.982 151.346 172.788 151.036C172.594 150.725 172.155 150.712 172.155 150.712L171.47 150.997L170.85 151.384C170.85 151.384 170.54 151.578 170.255 152.043C169.971 152.508 169.635 152.431 169.635 152.431C169.635 152.431 169.364 152.457 169.002 152.108C168.64 151.759 168.434 150.738 167.865 150.518C167.296 150.298 167.258 150.466 166.948 150.66C166.637 150.854 166.508 151.797 166.508 151.797C166.508 151.797 166.288 152.366 166.508 152.947C166.728 153.529 167.283 154.188 167.8 155.015L168.834 156.669C169.092 157.083 169.544 157.806 169.984 157.819Z" fill="white"/>
<path d="M158.32 137.072C158.076 137.434 158.443 138.156 158.443 138.156L159.543 140.324C159.543 140.324 160.405 142.755 161.744 142.973C162.074 143.026 162.234 142.973 162.6 142.973C162.967 142.973 163.212 142.612 163.212 142.612L163.334 141.889V141.167C163.334 141.167 163.334 140.805 163.09 140.324C162.845 139.842 163.09 139.601 163.09 139.601C163.09 139.601 163.212 139.36 163.701 139.24C164.19 139.119 165.168 139.481 165.658 139.119C166.147 138.758 166.025 138.638 166.025 138.276C166.025 137.915 165.291 137.313 165.291 137.313C165.291 137.313 164.924 136.831 164.312 136.711C163.701 136.591 162.845 136.711 161.867 136.711H159.91C159.421 136.711 158.565 136.711 158.32 137.072Z" fill="white"/>
<path d="M182.045 151.115C182.29 150.754 181.923 150.031 181.923 150.031L180.823 147.864C180.823 147.864 179.961 145.432 178.621 145.215C178.291 145.161 178.132 145.215 177.765 145.215C177.398 145.215 177.154 145.576 177.154 145.576L177.032 146.298V147.021C177.032 147.021 177.032 147.382 177.276 147.864C177.521 148.346 177.276 148.586 177.276 148.586C177.276 148.586 177.154 148.827 176.665 148.948C176.176 149.068 175.197 148.707 174.708 149.068C174.219 149.429 174.341 149.55 174.341 149.911C174.341 150.272 175.075 150.874 175.075 150.874C175.075 150.874 175.442 151.356 176.053 151.476C176.665 151.597 177.521 151.476 178.499 151.476H180.456C180.945 151.476 181.801 151.476 182.045 151.115Z" fill="white"/>
<path d="M158.076 150.871C157.832 150.51 158.199 149.788 158.199 149.788L159.299 147.62C159.299 147.62 160.161 145.188 161.501 144.971C161.83 144.917 161.99 144.971 162.357 144.971C162.723 144.971 162.968 145.332 162.968 145.332L163.09 146.055V146.777C163.09 146.777 163.09 147.138 162.846 147.62C162.601 148.102 162.846 148.343 162.846 148.343C162.846 148.343 162.968 148.583 163.457 148.704C163.946 148.824 164.925 148.463 165.414 148.824C165.903 149.185 165.781 149.306 165.781 149.667C165.781 150.028 165.047 150.631 165.047 150.631C165.047 150.631 164.68 151.112 164.069 151.233C163.457 151.353 162.601 151.233 161.623 151.233H159.666C159.177 151.233 158.321 151.233 158.076 150.871Z" fill="white"/>
<path d="M199.806 148.797C198.83 148.919 195.783 148.919 195.051 148.675C194.32 148.432 194.442 148.188 193.832 147.334C193.223 146.481 193.197 146.237 192.613 145.994C192.03 145.75 191.638 146.237 191.882 146.847L192.613 148.675C192.613 148.675 193.101 150.016 193.223 150.504C193.345 150.992 193.589 151.357 193.223 151.723C192.857 152.089 192.248 151.845 191.029 151.845C189.81 151.845 189.566 151.235 189.566 151.235L188.834 149.895L187.493 146.847L186.762 145.872C186.762 145.872 186.274 145.262 185.909 145.384C185.543 145.506 185.909 146.115 186.152 146.603C186.396 147.091 186.884 148.188 187.006 148.432C187.128 148.675 187.615 149.895 187.128 150.016C186.64 150.138 184.811 150.138 184.08 149.895C183.349 149.651 182.617 147.944 182.617 147.944L181.642 145.262V142.946L182.861 140.386L184.446 138.435C184.446 138.435 186.274 138.192 187.006 138.435C187.737 138.679 186.762 140.142 186.762 140.142L186.274 141.239C186.274 141.239 185.909 142.215 186.152 142.58C186.396 142.946 187.006 142.58 187.006 142.58L188.225 139.898L189.078 138.801C189.078 138.801 189.444 136.973 190.419 136.851C191.394 136.729 193.467 136.485 193.467 136.851C193.467 137.216 193.71 137.826 193.71 137.826L193.467 138.801L192.491 140.142C192.491 140.142 191.516 142.58 191.882 142.946C192.248 143.312 193.101 142.946 193.101 142.946C193.101 142.946 193.101 142.336 193.467 141.727C193.832 141.117 194.076 140.142 194.93 139.898C195.783 139.655 196.149 139.898 196.758 139.898C197.368 139.898 199.268 139.733 200.415 140.63C201.607 141.562 202 142.58 202 144.165C202 145.75 201.756 146.115 201.634 146.847C201.512 147.578 200.781 148.675 199.806 148.797Z" fill="white"/>
<path d="M159.119 115.741C159.712 116.524 161.236 119.163 161.391 119.919C161.545 120.674 161.273 120.69 160.839 121.645C160.405 122.6 160.207 122.744 160.287 123.371C160.368 123.998 160.986 124.094 161.392 123.578L162.61 122.03C162.61 122.03 163.527 120.937 163.889 120.588C164.25 120.239 164.445 119.845 164.944 119.979C165.444 120.112 165.537 120.762 166.147 121.818C166.757 122.874 166.351 123.39 166.351 123.39L165.555 124.693L163.586 127.379L163.107 128.5C163.107 128.5 162.823 129.227 163.112 129.482C163.4 129.738 163.745 129.117 164.045 128.662C164.346 128.207 165.052 127.236 165.202 127.009C165.353 126.781 166.164 125.749 166.514 126.111C166.863 126.472 167.778 128.055 167.932 128.811C168.087 129.566 166.974 131.053 166.974 131.053L165.139 133.238L163.134 134.397L160.307 134.621L157.825 134.224C157.825 134.224 156.7 132.762 156.545 132.007C156.391 131.251 158.145 131.364 158.145 131.364L159.339 131.238C159.339 131.238 160.367 131.067 160.562 130.673C160.756 130.279 160.135 129.934 160.135 129.934L157.203 130.219L155.826 130.029C155.826 130.029 154.06 130.627 153.466 129.843C152.873 129.059 151.626 127.386 151.943 127.204C152.259 127.021 152.665 126.505 152.665 126.505L153.632 126.228L155.281 126.402C155.281 126.402 157.88 126.028 158.014 125.528C158.147 125.029 157.404 124.473 157.404 124.473C157.404 124.473 156.876 124.777 156.165 124.766C155.455 124.754 154.488 125.03 153.85 124.413C153.213 123.796 153.241 123.357 152.936 122.829C152.631 122.301 151.538 120.739 151.741 119.296C151.952 117.798 152.638 116.949 154.01 116.156C155.383 115.364 155.821 115.392 156.516 115.132C157.21 114.872 158.526 114.957 159.119 115.741Z" fill="white"/>
<path d="M181.729 116.228C181.136 117.012 179.612 119.651 179.458 120.406C179.303 121.162 179.575 121.178 180.009 122.133C180.444 123.087 180.642 123.232 180.561 123.859C180.481 124.486 179.862 124.582 179.456 124.066L178.239 122.518C178.239 122.518 177.321 121.425 176.96 121.076C176.598 120.726 176.404 120.332 175.904 120.466C175.404 120.6 175.311 121.25 174.701 122.306C174.092 123.361 174.498 123.877 174.498 123.877L175.293 125.181L177.262 127.866L177.741 128.987C177.741 128.987 178.025 129.714 177.737 129.97C177.448 130.226 177.103 129.604 176.803 129.149C176.502 128.694 175.796 127.724 175.646 127.496C175.496 127.269 174.684 126.237 174.334 126.598C173.985 126.96 173.071 128.543 172.916 129.298C172.762 130.054 173.874 131.541 173.874 131.541L175.709 133.726L177.715 134.884L180.541 135.108L183.023 134.711C183.023 134.711 184.148 133.25 184.303 132.494C184.457 131.739 182.703 131.852 182.703 131.852L181.509 131.726C181.509 131.726 180.482 131.555 180.287 131.161C180.092 130.767 180.713 130.422 180.713 130.422L183.646 130.707L185.022 130.517C185.022 130.517 186.789 131.114 187.382 130.331C187.975 129.547 189.223 127.874 188.906 127.691C188.589 127.508 188.183 126.992 188.183 126.992L187.217 126.716L185.568 126.89C185.568 126.89 182.969 126.516 182.835 126.016C182.701 125.516 183.444 124.96 183.444 124.96C183.444 124.96 183.972 125.265 184.683 125.253C185.394 125.241 186.36 125.518 186.998 124.901C187.636 124.283 187.607 123.845 187.912 123.317C188.217 122.789 189.311 121.226 189.107 119.784C188.896 118.286 188.211 117.436 186.838 116.644C185.466 115.852 185.027 115.88 184.333 115.62C183.638 115.36 182.322 115.445 181.729 116.228Z" fill="white"/>
<path d="M180.754 172.355C180.161 171.571 178.637 168.932 178.482 168.177C178.328 167.421 178.6 167.405 179.034 166.45C179.468 165.496 179.667 165.351 179.586 164.724C179.505 164.097 178.887 164.002 178.481 164.517L177.263 166.065C177.263 166.065 176.346 167.158 175.985 167.507C175.623 167.857 175.428 168.251 174.929 168.117C174.429 167.983 174.336 167.333 173.726 166.278C173.117 165.222 173.523 164.706 173.523 164.706L174.318 163.402L176.287 160.717L176.766 159.596C176.766 159.596 177.05 158.869 176.761 158.613C176.473 158.357 176.128 158.979 175.828 159.434C175.527 159.889 174.821 160.859 174.671 161.087C174.521 161.314 173.709 162.346 173.359 161.985C173.01 161.624 172.096 160.04 171.941 159.285C171.786 158.529 172.899 157.043 172.899 157.043L174.734 154.857L176.74 153.699L179.566 153.475L182.048 153.872C182.048 153.872 183.173 155.334 183.328 156.089C183.482 156.844 181.728 156.731 181.728 156.731L180.534 156.857C180.534 156.857 179.506 157.028 179.312 157.422C179.117 157.816 179.738 158.161 179.738 158.161L182.67 157.876L184.047 158.066C184.047 158.066 185.814 157.469 186.407 158.252C187 159.036 188.247 160.709 187.931 160.892C187.614 161.075 187.208 161.591 187.208 161.591L186.241 161.867L184.592 161.693C184.592 161.693 181.993 162.067 181.86 162.567C181.726 163.067 182.469 163.623 182.469 163.623C182.469 163.623 182.997 163.318 183.708 163.33C184.418 163.342 185.385 163.065 186.023 163.682C186.66 164.3 186.632 164.738 186.937 165.266C187.242 165.794 188.335 167.357 188.132 168.799C187.921 170.297 187.235 171.147 185.863 171.939C184.49 172.731 184.052 172.703 183.357 172.963C182.663 173.223 181.347 173.139 180.754 172.355Z" fill="white"/>
<path d="M158.631 172.355C159.225 171.571 160.748 168.932 160.903 168.177C161.058 167.421 160.786 167.405 160.351 166.45C159.917 165.496 159.719 165.351 159.799 164.724C159.88 164.097 160.498 164.002 160.904 164.517L162.122 166.065C162.122 166.065 163.04 167.158 163.401 167.507C163.762 167.857 163.957 168.251 164.457 168.117C164.956 167.983 165.05 167.333 165.659 166.278C166.269 165.222 165.863 164.706 165.863 164.706L165.067 163.402L163.099 160.717L162.62 159.596C162.62 159.596 162.336 158.869 162.624 158.613C162.912 158.357 163.257 158.979 163.558 159.434C163.858 159.889 164.565 160.859 164.715 161.087C164.865 161.314 165.677 162.346 166.026 161.985C166.376 161.624 167.29 160.04 167.444 159.285C167.599 158.529 166.487 157.043 166.487 157.043L164.652 154.857L162.646 153.699L159.819 153.475L157.338 153.872C157.338 153.872 156.212 155.334 156.058 156.089C155.903 156.844 157.658 156.731 157.658 156.731L158.852 156.857C158.852 156.857 159.879 157.028 160.074 157.422C160.269 157.816 159.647 158.161 159.647 158.161L156.715 157.876L155.338 158.066C155.338 158.066 153.572 157.469 152.979 158.252C152.386 159.036 151.138 160.709 151.455 160.892C151.772 161.075 152.178 161.591 152.178 161.591L153.144 161.867L154.793 161.693C154.793 161.693 157.392 162.067 157.526 162.567C157.66 163.067 156.916 163.623 156.916 163.623C156.916 163.623 156.389 163.318 155.678 163.33C154.967 163.342 154.001 163.065 153.363 163.682C152.725 164.3 152.753 164.738 152.449 165.266C152.144 165.794 151.05 167.357 151.253 168.799C151.464 170.297 152.15 171.147 153.523 171.939C154.895 172.731 155.334 172.703 156.028 172.963C156.722 173.223 158.038 173.139 158.631 172.355Z" fill="white"/>
<path d="M140.194 148.066C141.17 148.188 144.217 148.188 144.949 147.944C145.68 147.7 145.558 147.456 146.168 146.603C146.777 145.75 146.803 145.506 147.387 145.262C147.97 145.018 148.362 145.506 148.118 146.115L147.387 147.944C147.387 147.944 146.899 149.285 146.777 149.773C146.655 150.26 146.411 150.626 146.777 150.992C147.143 151.357 147.752 151.114 148.971 151.114C150.19 151.114 150.434 150.504 150.434 150.504L151.166 149.163L152.507 146.115L153.238 145.14C153.238 145.14 153.726 144.531 154.091 144.653C154.457 144.774 154.091 145.384 153.848 145.872C153.604 146.359 153.116 147.456 152.994 147.7C152.872 147.944 152.385 149.163 152.872 149.285C153.36 149.407 155.189 149.407 155.92 149.163C156.651 148.919 157.383 147.213 157.383 147.213L158.358 144.531V142.215L157.139 139.655L155.554 137.704C155.554 137.704 153.726 137.46 152.994 137.704C152.263 137.948 153.238 139.411 153.238 139.411L153.726 140.508C153.726 140.508 154.091 141.483 153.848 141.849C153.604 142.215 152.994 141.849 152.994 141.849L151.775 139.167L150.922 138.07C150.922 138.07 150.556 136.241 149.581 136.119C148.606 135.997 146.533 135.754 146.533 136.119C146.533 136.485 146.29 137.095 146.29 137.095L146.533 138.07L147.509 139.411C147.509 139.411 148.484 141.849 148.118 142.215C147.752 142.58 146.899 142.215 146.899 142.215C146.899 142.215 146.899 141.605 146.533 140.995C146.168 140.386 145.924 139.411 145.07 139.167C144.217 138.923 143.851 139.167 143.242 139.167C142.632 139.167 140.732 139.001 139.585 139.898C138.393 140.83 138 141.849 138 143.434C138 145.018 138.244 145.384 138.366 146.115C138.488 146.847 139.219 147.944 140.194 148.066Z" fill="white"/>
<path d="M43.3197 176.803C45.1207 175.918 45.932 174.19 47.4558 173.755C48.9796 173.32 49.8504 174.408 49.8504 174.408C49.8504 174.408 51.1565 175.497 51.1565 176.585C51.1565 177.673 49.6327 179.415 49.6327 179.415C49.6327 179.415 47.3242 181.036 45.4966 181.592C43.0513 182.336 39.619 182.245 38.966 181.592C38.3129 180.939 39.1837 178.109 39.1837 178.109C39.1837 178.109 41.7993 177.549 43.3197 176.803Z" fill="white"/>
<path d="M48.3265 184.857C44.9933 186.358 39.8367 183.551 38.966 184.857C38.0952 186.163 38.2899 185.724 38.0952 186.381C37.8537 187.196 37.7706 187.772 38.0952 188.558C38.3488 189.171 39.1837 189.864 39.1837 189.864L43.9728 190.517L47.4558 191.17C47.4558 191.17 49.8503 191.605 50.7211 191.17C51.5918 190.735 52.2449 189.429 52.2449 189.429C52.2449 189.429 53.3066 187.475 54.2041 186.381C54.9667 185.452 55.327 185.235 55.9456 184.204C56.4988 183.282 57.2517 181.592 57.2517 181.592V179.415L56.381 178.762H54.2041C54.2041 178.762 51.3417 183.5 48.3265 184.857Z" fill="white"/>
<path d="M60.7347 183.551L62.9116 183.769L64 184.204V186.381L60.7347 191.823C60.7347 191.823 56.381 197.918 54.2041 199.224C52.0272 200.531 44.8435 198.789 42.8844 198.789C40.9252 198.789 37.0068 196.83 37.0068 196.83V193.782C37.0068 193.782 37.2245 193.565 38.0952 193.129C38.966 192.694 49.8504 195.088 52.2449 193.782C54.6394 192.476 54.8571 190.517 56.381 188.34C57.9048 186.163 60.2879 184.179 60.7347 183.551Z" fill="white"/>
<path d="M52.2449 205.755C49.6327 203.796 38.966 200.966 38.966 202.49C38.966 204.014 39.1837 204.884 39.1837 204.884L43.9728 211.85L46.585 215.551L54.2041 217.728C54.2041 217.728 59.6463 218.816 59.8639 217.728C60.0816 216.639 58.7755 215.551 58.7755 215.551C58.7755 215.551 54.8571 207.714 52.2449 205.755Z" fill="white"/>
<path d="M91.3451 180.964C93.0494 182.023 94.9447 181.795 96.1214 182.857C97.2981 183.918 96.8365 185.233 96.8365 185.233C96.8365 185.233 96.6056 186.918 95.6825 187.495C94.7595 188.071 92.4751 187.702 92.4751 187.702C92.4751 187.702 89.8775 186.603 88.4373 185.348C86.5103 183.669 84.7688 180.71 84.9766 179.81C85.1843 178.91 88.0457 178.149 88.0457 178.149C88.0457 178.149 89.9063 180.07 91.3451 180.964Z" fill="white"/>
<path d="M87.1678 189.478C84.1286 187.447 83.7765 181.586 82.2074 181.54C80.6383 181.494 81.1142 181.426 80.4537 181.609C79.6345 181.836 79.1019 182.071 78.6076 182.763C78.2216 183.303 78.0768 184.378 78.0768 184.378L80.0608 188.785L81.3527 192.085C81.3527 192.085 82.2524 194.347 83.083 194.854C83.9137 195.362 85.3674 195.224 85.3674 195.224C85.3674 195.224 87.5869 195.089 88.9901 195.27C90.1825 195.424 90.557 195.615 91.7591 195.594C92.8342 195.574 94.6665 195.317 94.6665 195.317L96.5126 194.163L96.605 193.079L95.4514 191.233C95.4514 191.233 89.9169 191.316 87.1678 189.478Z" fill="white"/>
<path d="M94.8507 199.309L95.8197 201.27L96.0273 202.424L94.1812 203.578L87.8356 203.692C87.8356 203.692 80.3594 203.23 78.0982 202.076C75.837 200.922 73.5071 193.907 72.4689 192.246C71.4307 190.584 71.0157 186.223 71.0157 186.223L73.6002 184.608C73.6002 184.608 73.9002 184.678 74.7309 185.185C75.5615 185.693 79.2986 196.192 81.6752 197.531C84.0518 198.869 85.8286 198.016 88.4822 198.155C91.1358 198.293 94.0815 199.263 94.8507 199.309Z" fill="white"/>
<path d="M71.5217 203.875C71.7989 200.622 68.5464 190.076 67.2541 190.884C65.9618 191.691 65.3388 192.338 65.3388 192.338L61.9691 200.09L60.215 204.267L62.4064 211.882C62.4064 211.882 64.3673 217.074 65.4057 216.681C66.4441 216.289 66.675 214.605 66.675 214.605C66.675 214.605 71.2445 207.129 71.5217 203.875Z" fill="white"/>
<path d="M36.27 259.821C34.5657 258.763 32.6704 258.99 31.4937 257.929C30.317 256.867 30.7786 255.552 30.7786 255.552C30.7786 255.552 31.0095 253.868 31.9326 253.291C32.8556 252.714 35.14 253.083 35.14 253.083C35.14 253.083 37.7376 254.182 39.1778 255.437C41.1048 257.117 42.8463 260.076 42.6386 260.976C42.4308 261.876 39.5694 262.637 39.5694 262.637C39.5694 262.637 37.7088 260.715 36.27 259.821Z" fill="white"/>
<path d="M40.4474 251.307C43.4865 253.339 43.8386 259.199 45.4077 259.245C46.9768 259.292 46.5009 259.359 47.1614 259.176C47.9806 258.949 48.5132 258.714 49.0075 258.023C49.3935 257.483 49.5383 256.408 49.5383 256.408L47.5543 252L46.2624 248.7C46.2624 248.7 45.3627 246.439 44.5321 245.931C43.7014 245.423 42.2477 245.562 42.2477 245.562C42.2477 245.562 40.0282 245.697 38.625 245.515C37.4327 245.361 37.0581 245.17 35.856 245.192C34.7809 245.211 32.9486 245.469 32.9486 245.469L31.1025 246.622L31.0101 247.707L32.1637 249.553C32.1637 249.553 37.6982 249.47 40.4474 251.307Z" fill="white"/>
<path d="M32.7644 241.477L31.7954 239.515L31.5879 238.361L33.4339 237.208L39.7795 237.093C39.7795 237.093 47.2557 237.555 49.5169 238.709C51.7781 239.863 54.108 246.878 55.1462 248.54C56.1845 250.201 56.5994 254.562 56.5994 254.562L54.0149 256.177C54.0149 256.177 53.7149 256.108 52.8843 255.6C52.0536 255.093 48.3165 244.593 45.9399 243.255C43.5633 241.916 41.7865 242.77 39.1329 242.631C36.4793 242.492 33.5336 241.523 32.7644 241.477Z" fill="white"/>
<path d="M56.0934 236.91C55.8162 240.163 59.0688 250.709 60.361 249.901C61.6533 249.094 62.2764 248.448 62.2764 248.448L65.646 240.695L67.4001 236.519L65.2087 228.904C65.2087 228.904 63.2478 223.712 62.2094 224.104C61.171 224.496 60.9401 226.181 60.9401 226.181C60.9401 226.181 56.3706 233.656 56.0934 236.91Z" fill="white"/>
<path d="M111.817 226.304C111.613 228.3 112.648 229.903 112.21 231.426C111.772 232.949 110.387 233.111 110.387 233.111C110.387 233.111 108.772 233.642 107.849 233.065C106.926 232.488 106.256 230.273 106.256 230.273C106.256 230.273 106.105 227.457 106.602 225.612C107.267 223.144 109.163 220.282 110.063 220.074C110.963 219.866 112.901 222.104 112.901 222.104C112.901 222.104 111.99 224.619 111.817 226.304Z" fill="white"/>
<path d="M102.333 226.282C102.827 222.66 107.94 219.774 107.294 218.343C106.647 216.913 106.917 217.311 106.463 216.798C105.9 216.161 105.455 215.785 104.617 215.644C103.962 215.534 102.932 215.875 102.932 215.875L99.8407 219.59L97.4411 222.198C97.4411 222.198 95.803 223.998 95.7108 224.967C95.6186 225.936 96.3802 227.182 96.3802 227.182C96.3802 227.182 97.4744 229.118 97.9265 230.459C98.3106 231.598 98.3032 232.018 98.8497 233.089C99.3385 234.047 100.373 235.581 100.373 235.581L102.219 236.735L103.234 236.342L104.388 234.496C104.388 234.496 101.887 229.558 102.333 226.282Z" fill="white"/>
<path d="M96.8657 237.497L95.5275 239.227L94.5815 239.92L92.7354 238.766L89.8505 233.113C89.8505 233.113 86.9886 226.191 87.0345 223.653C87.0804 221.114 92.3641 215.945 93.4023 214.284C94.4405 212.622 98.1784 210.337 98.1784 210.337L100.763 211.952C100.763 211.952 100.832 212.252 100.74 213.221C100.648 214.191 92.8492 222.152 92.688 224.875C92.5267 227.598 94.0728 228.821 95.1114 231.266C96.15 233.712 96.57 236.785 96.8657 237.497Z" fill="white"/>
<path d="M82.5345 218.53C85.5802 217.353 93.6326 209.807 92.3404 209C91.0481 208.192 90.1943 207.915 90.1943 207.915L81.749 208.285L77.2263 208.54L71.3428 213.847C71.3428 213.847 67.5358 217.886 68.3435 218.647C69.1512 219.408 70.7664 218.878 70.7664 218.878C70.7664 218.878 79.4887 219.707 82.5345 218.53Z" fill="white"/>
<path d="M84.6054 264.85C82.8123 265.75 82.0161 267.485 80.4961 267.934C78.9762 268.382 78.096 267.302 78.096 267.302C78.096 267.302 76.7804 266.225 76.7709 265.136C76.7614 264.048 78.27 262.293 78.27 262.293C78.27 262.293 80.5641 260.652 82.3869 260.08C84.8256 259.315 88.2585 259.376 88.9172 260.023C89.576 260.671 88.7299 263.508 88.7299 263.508C88.7299 263.508 86.1193 264.09 84.6054 264.85Z" fill="white"/>
<path d="M79.5286 256.84C82.8486 255.31 88.0294 258.072 88.8888 256.758C89.7481 255.444 89.5572 255.886 89.7462 255.227C89.9805 254.41 90.0587 253.833 89.7272 253.05C89.4682 252.439 88.6274 251.753 88.6274 251.753L83.8327 251.142L80.3442 250.519C80.3442 250.519 77.9459 250.105 77.079 250.548C76.2121 250.991 75.5704 252.303 75.5704 252.303C75.5704 252.303 74.5258 254.266 73.6379 255.367C72.8835 256.303 72.525 256.523 71.9155 257.559C71.3703 258.486 70.6322 260.183 70.6322 260.183L70.6512 262.36L71.5276 263.005L73.7044 262.986C73.7044 262.986 76.5253 258.224 79.5286 256.84Z" fill="white"/>
<path d="M67.1323 258.254L64.9536 258.055L63.8614 257.63L63.8424 255.453L67.0601 249.982C67.0601 249.982 71.3605 243.849 73.5259 242.524C75.6912 241.199 82.8898 242.878 84.8489 242.861C86.8081 242.844 90.7434 244.769 90.7434 244.769L90.77 247.816C90.77 247.816 90.5542 248.036 89.6873 248.479C88.8204 248.922 77.9155 246.622 75.5325 247.949C73.1494 249.276 72.9488 251.237 71.444 253.427C69.9393 255.617 67.5735 257.622 67.1323 258.254Z" fill="white"/>
<path d="M75.428 235.977C78.0572 237.913 88.7482 240.65 88.7349 239.126C88.7216 237.602 88.4963 236.734 88.4963 236.734L83.6466 229.81L81.0021 226.132L73.3644 224.022C73.3644 224.022 67.9129 222.981 67.7047 224.071C67.4966 225.161 68.8121 226.238 68.8121 226.238C68.8121 226.238 72.7987 234.04 75.428 235.977Z" fill="white"/>
<path d="M14.7245 215.166C14.929 213.171 13.8935 211.567 14.3318 210.044C14.7701 208.521 16.1545 208.359 16.1545 208.359C16.1545 208.359 17.7697 207.828 18.6928 208.405C19.6158 208.982 20.2852 211.197 20.2852 211.197C20.2852 211.197 20.4363 214.014 19.9395 215.858C19.2748 218.326 17.3787 221.189 16.4788 221.397C15.5789 221.604 13.6404 219.366 13.6404 219.366C13.6404 219.366 14.5519 216.852 14.7245 215.166Z" fill="white"/>
<path d="M24.2083 215.189C23.7147 218.811 18.6017 221.696 19.2479 223.127C19.8941 224.557 19.6246 224.159 20.0788 224.673C20.642 225.31 21.0865 225.685 21.9248 225.826C22.5796 225.937 23.6093 225.595 23.6093 225.595L26.701 221.88L29.1005 219.272C29.1005 219.272 30.7386 217.472 30.8308 216.503C30.923 215.534 30.1615 214.288 30.1615 214.288C30.1615 214.288 29.0672 212.352 28.6151 211.012C28.231 209.873 28.2384 209.452 27.6919 208.381C27.2031 207.423 26.1687 205.889 26.1687 205.889L24.3226 204.736L23.3074 205.128L22.1538 206.974C22.1538 206.974 24.6547 211.912 24.2083 215.189Z" fill="white"/>
<path d="M29.6759 203.974L31.0141 202.243L31.9601 201.551L33.8062 202.704L36.6911 208.357C36.6911 208.357 39.553 215.28 39.5071 217.818C39.4612 220.356 34.1775 225.525 33.1393 227.187C32.1011 228.848 28.3632 231.133 28.3632 231.133L25.7787 229.518C25.7787 229.518 25.7094 229.218 25.8016 228.249C25.8938 227.28 33.6924 219.318 33.8536 216.595C34.0149 213.873 32.4688 212.65 31.4302 210.204C30.3916 207.758 29.9717 204.685 29.6759 203.974Z" fill="white"/>
<path d="M44.0071 222.94C40.9614 224.117 32.909 231.663 34.2012 232.471C35.4935 233.278 36.3473 233.555 36.3473 233.555L44.7926 233.185L49.3153 232.931L55.1988 227.623C55.1988 227.623 59.0058 223.585 58.1981 222.823C57.3904 222.062 55.7752 222.593 55.7752 222.593C55.7752 222.593 47.0529 221.763 44.0071 222.94Z" fill="white"/>
<path d="M44.8435 167.007C44.8435 169.772 42.6019 172.014 39.8367 172.014C37.0716 172.014 34.8299 169.772 34.8299 167.007C34.8299 164.242 37.0716 162 39.8367 162C42.6019 162 44.8435 164.242 44.8435 167.007Z" fill="white"/>
<path d="M10.0136 214.027C10.0136 216.792 7.77198 219.034 5.0068 219.034C2.24162 219.034 0 216.792 0 214.027C0 211.262 2.24162 209.02 5.0068 209.02C7.77198 209.02 10.0136 211.262 10.0136 214.027Z" fill="white"/>
<path d="M103.619 173.537C103.619 176.303 101.377 178.544 98.6122 178.544C95.8471 178.544 93.6054 176.303 93.6054 173.537C93.6054 170.772 95.8471 168.531 98.6122 168.531C101.377 168.531 103.619 170.772 103.619 173.537Z" fill="white"/>
<path d="M128 227.088C128 229.854 125.758 232.095 122.993 232.095C120.228 232.095 117.986 229.854 117.986 227.088C117.986 224.323 120.228 222.082 122.993 222.082C125.758 222.082 128 224.323 128 227.088Z" fill="white"/>
<path d="M91.8639 273.238C91.8639 276.003 89.6223 278.245 86.8571 278.245C84.092 278.245 81.8503 276.003 81.8503 273.238C81.8503 270.473 84.092 268.231 86.8571 268.231C89.6223 268.231 91.8639 270.473 91.8639 273.238Z" fill="white"/>
<path d="M34.8299 268.014C34.8299 270.779 32.5883 273.02 29.8231 273.02C27.0579 273.02 24.8163 270.779 24.8163 268.014C24.8163 265.248 27.0579 263.007 29.8231 263.007C32.5883 263.007 34.8299 265.248 34.8299 268.014Z" fill="white"/>
<path d="M186.522 230.177C188.46 229.533 187.674 226.292 189.699 226.022C190.077 225.972 190.677 226.022 190.677 226.022L192.388 227.733L193.121 230.422H193.854L194.343 229.689H195.809V231.644L194.832 233.11H194.343V237.021H195.809V238.488L194.832 240.199L191.166 244.109C191.166 244.109 190.575 246.613 191.654 247.042C192.281 247.292 193.365 246.798 193.365 246.798L197.276 240.687L198.742 239.465L200.209 240.687L202.897 238.488L203.631 237.754H205.097L206.319 238.488L206.564 239.465V240.199H207.786L209.008 239.465H210.719L211.696 240.199V242.154L210.719 243.132H209.986V245.82L210.719 246.309C210.719 246.309 211.355 246.138 211.696 246.309C212.379 246.65 211.696 248.264 211.696 248.264L210.719 249.242H209.008L208.275 248.264L205.83 249.242L205.097 249.975L204.608 251.442C204.608 251.442 204.46 252.279 204.12 252.664C203.361 253.522 202.214 253.17 201.187 252.664C200.759 252.453 200.209 251.931 200.209 251.931C200.209 251.931 199.93 251.612 199.72 251.442C198.459 250.421 196.359 250.027 195.565 251.442C195.049 252.361 194.872 253.647 195.809 254.13C196.318 254.393 196.706 254.071 197.276 254.13C198.477 254.254 199.023 254.881 200.209 255.108C201.896 255.431 203.911 253.538 204.608 255.108C204.919 255.806 205.116 256.493 204.608 257.063C204.325 257.382 203.868 257.197 203.631 257.552C203.366 257.949 203.525 258.309 203.631 258.774C204.096 260.822 209.008 258.774 209.008 258.774L209.986 259.507C209.986 259.507 210.676 260.175 210.719 260.729C210.791 261.672 209.254 261.528 209.008 262.44C208.778 263.29 209.294 263.784 209.497 264.64C209.678 265.406 210.046 265.811 209.986 266.595C209.939 267.197 209.973 267.691 209.497 268.062C208.969 268.472 207.786 268.062 207.786 268.062L205.097 268.795L204.12 270.751C204.12 270.751 203.452 271.431 202.897 271.484C201.814 271.586 201.187 269.284 201.187 269.284L199.72 266.595H195.809L194.832 263.662L193.121 260.729L191.899 259.507H190.677V261.463L193.365 265.618V268.062L190.677 269.284L190.188 270.751L192.388 272.706V275.639H190.677L187.01 278.327H185.544L183.589 277.594L182.855 273.439L179.922 274.906V271.973H180.9L179.922 268.062V266.107L182.367 263.662L184.322 260.974L184.566 258.774L183.589 258.041L176.989 266.107L176.012 265.129H174.545L171.123 267.573H169.168V266.595L169.657 265.618V264.64H168.679L167.946 266.107L165.013 265.129H164.035V263.174V261.952L165.013 260.974V257.552C165.013 257.552 164.21 256.825 164.035 256.196C163.551 254.448 168.19 256.061 168.679 256.196C169.168 256.33 170.588 257.843 171.368 257.063C172.046 256.385 171.368 255.597 171.123 254.619C170.879 253.641 170.886 253.264 171.368 252.664C172.084 251.77 174.301 252.664 174.301 252.664C174.301 252.664 174.545 253.397 175.523 253.641C176.501 253.886 179.189 253.397 179.189 253.397C179.189 253.397 179.752 253.207 179.922 252.908C180.112 252.577 179.922 251.931 179.922 251.931C179.922 251.931 179.565 251.348 179.189 251.197C178.835 251.055 178.562 251.35 178.211 251.197C177.701 250.975 177.853 250.387 177.478 249.975C176.066 248.421 172.101 249.975 172.101 249.975C172.101 249.975 170.66 249.917 170.39 249.242C170.248 248.887 170.39 248.264 170.39 248.264C170.39 248.264 170.553 247.766 170.39 247.531C170.218 247.283 169.657 247.287 169.657 247.287C169.657 247.287 169.083 246.937 168.679 246.798C167.686 246.456 166.349 247.785 165.991 246.798C165.86 246.439 165.991 245.82 165.991 245.82C165.98 242.669 165.746 237.754 165.746 237.754L166.48 237.021H167.946L169.657 236.532L170.39 235.799L171.123 234.821L172.101 234.088H173.323L174.545 234.821L175.523 236.532L176.501 239.465L176.989 238.243H178.456L179.922 238.976L180.9 240.199L181.389 242.154L182.122 244.109L183.344 245.82C183.344 245.82 184.441 246.082 185.055 245.82C186.558 245.179 184.566 241.665 184.566 241.665L183.589 239.71V235.468L184.322 232.622L182.367 232.133C182.367 232.133 181.719 230.582 182.367 230.177C182.771 229.925 183.111 230.177 183.589 230.177C184.734 230.177 185.435 230.539 186.522 230.177Z" fill="white"/>
</svg>
