<svg width="287" height="210" viewBox="0 0 287 210" fill="none" xmlns="http://www.w3.org/2000/svg">
<path d="M96.5216 -6.8225C98.4601 -7.46657 97.6742 -10.7076 99.699 -10.9776C100.077 -11.028 100.677 -10.9776 100.677 -10.9776L102.388 -9.26666L103.121 -6.57809H103.854L104.343 -7.31133H105.809V-5.35601L104.832 -3.88951H104.343V0.021143H105.809V1.48764L104.832 3.19855L101.166 7.10921C101.166 7.10921 100.575 9.6129 101.654 10.0422C102.281 10.2917 103.365 9.79778 103.365 9.79778L107.276 3.68738L108.742 2.4653L110.209 3.68738L112.897 1.48764L113.631 0.754391H115.097L116.319 1.48764L116.564 2.4653V3.19855H117.786L119.008 2.4653H120.719L121.696 3.19855V5.15388L120.719 6.13154H119.986V8.82012L120.719 9.30895C120.719 9.30895 121.355 9.1382 121.696 9.30895C122.379 9.65044 121.696 11.2643 121.696 11.2643L120.719 12.2419H119.008L118.275 11.2643L115.83 12.2419L115.097 12.9752L114.608 14.4417C114.608 14.4417 114.46 15.2785 114.12 15.6638C113.361 16.5222 112.214 16.1704 111.187 15.6638C110.759 15.4527 110.209 14.9305 110.209 14.9305C110.209 14.9305 109.93 14.6116 109.72 14.4417C108.459 13.4207 106.359 13.0268 105.565 14.4417C105.049 15.361 104.872 16.6471 105.809 17.1303C106.318 17.3927 106.706 17.0713 107.276 17.1303C108.477 17.2545 109.023 17.8809 110.209 18.1079C111.896 18.4311 113.911 16.5379 114.608 18.1079C114.919 18.8057 115.116 19.4925 114.608 20.0632C114.325 20.3823 113.868 20.1969 113.631 20.5521C113.366 20.9492 113.525 21.3088 113.631 21.7742C114.096 23.8218 119.008 21.7742 119.008 21.7742L119.986 22.5074C119.986 22.5074 120.676 23.1746 120.719 23.7295C120.791 24.6716 119.254 24.5282 119.008 25.4404C118.778 26.29 119.294 26.7838 119.497 27.6401C119.678 28.4061 120.046 28.8107 119.986 29.5955C119.939 30.1974 119.973 30.6913 119.497 31.062C118.969 31.4722 117.786 31.062 117.786 31.062L115.097 31.7952L114.12 33.7505C114.12 33.7505 113.452 34.4314 112.897 34.4838C111.814 34.5863 111.187 32.284 111.187 32.284L109.72 29.5955H105.809L104.832 26.6625L103.121 23.7295L101.899 22.5074H100.677V24.4627L103.365 28.6178V31.062L100.677 32.284L100.188 33.7505L102.388 35.7059V38.6389H100.677L97.0104 41.3274H95.544L93.5886 40.5942L92.8554 36.4391L89.9224 37.9056V34.9726H90.9001L89.9224 31.062V29.1066L92.3665 26.6625L94.3219 23.9739L94.5663 21.7742L93.5886 21.0409L86.9894 29.1066L86.0117 28.129H84.5452L81.1234 30.5731H79.1681V29.5955L79.6569 28.6178V27.6401H78.6793L77.946 29.1066L75.013 28.129H74.0354V26.1736V24.9516L75.013 23.9739V20.5521C75.013 20.5521 74.2096 19.825 74.0354 19.1957C73.5513 17.4479 78.1904 19.0614 78.6793 19.1957C79.1681 19.33 80.5877 20.8434 81.3678 20.0632C82.0461 19.3849 81.3679 18.5968 81.1234 17.6191C80.879 16.6414 80.8863 16.2641 81.3678 15.6638C82.0845 14.7703 84.3008 15.6638 84.3008 15.6638C84.3008 15.6638 84.5452 16.397 85.5229 16.6414C86.5006 16.8858 89.1891 16.397 89.1891 16.397C89.1891 16.397 89.7516 16.207 89.9224 15.9082C90.1118 15.5767 89.9224 14.9305 89.9224 14.9305C89.9224 14.9305 89.5651 14.3477 89.1891 14.1973C88.8346 14.0555 88.5616 14.3495 88.2115 14.1973C87.7011 13.9753 87.8526 13.387 87.4782 12.9752C86.0657 11.4214 82.1011 12.9752 82.1011 12.9752C82.1011 12.9752 80.6601 12.9169 80.3902 12.2419C80.2484 11.8874 80.3902 11.2643 80.3902 11.2643C80.3902 11.2643 80.5532 10.7665 80.3902 10.531C80.2184 10.2829 79.6569 10.2866 79.6569 10.2866C79.6569 10.2866 79.0829 9.93655 78.6793 9.79778C77.6863 9.45646 76.3495 10.7845 75.9907 9.79778C75.8602 9.43897 75.9907 8.82012 75.9907 8.82012C75.9804 5.66883 75.7463 0.754391 75.7463 0.754391L76.4795 0.021143H77.946L79.6569 -0.467689L80.3902 -1.20094L81.1234 -2.1786L82.1011 -2.91185H83.3232L84.5452 -2.1786L85.5229 -0.467689L86.5006 2.4653L86.9894 1.24322H88.4559L89.9224 1.97647L90.9001 3.19855L91.3889 5.15388L92.1221 7.10921L93.3442 8.82012C93.3442 8.82012 94.4405 9.08225 95.0551 8.82012C96.558 8.17912 94.5663 4.66505 94.5663 4.66505L93.5886 2.70972V-1.53177L94.3219 -4.37834L92.3665 -4.86718C92.3665 -4.86718 91.719 -6.41779 92.3665 -6.8225C92.7713 -7.07545 93.1114 -6.8225 93.5886 -6.8225C94.734 -6.8225 95.4346 -6.46136 96.5216 -6.8225Z" fill="#0B4F6C"/>
<path d="M50.0724 156.033C51.2838 155.642 53.101 151.198 53.101 151.198C53.101 151.198 55.0969 155.382 56.9371 156.436C58.6674 157.426 62.7924 157.443 62.7924 157.443C62.7924 157.443 60.1676 161.069 60.1676 162.076C60.1676 163.083 62.9943 167.716 62.9943 167.716C62.9943 167.716 58.7543 167.314 57.5428 167.918C56.3314 168.522 53.101 172.954 53.101 172.954C53.101 172.954 52.0914 168.724 49.2648 167.716C46.4381 166.709 43.0057 166.709 43.0057 166.709C43.0057 166.709 46.0343 163.285 46.0343 161.673C46.0343 160.062 43.8133 157.04 43.8133 157.04C43.8133 157.04 48.8609 156.424 50.0724 156.033Z" fill="#0B4F6C"/>
<path d="M73.0895 150.392C73.4933 150.997 72.8876 152.205 72.8876 152.205L71.0705 155.831C71.0705 155.831 69.6476 159.899 67.4362 160.263C66.8916 160.353 66.6286 160.263 66.0229 160.263C65.4171 160.263 65.0133 159.659 65.0133 159.659L64.8114 158.45V157.241C64.8114 157.241 64.8114 156.637 65.2152 155.831C65.619 155.026 65.2152 154.623 65.2152 154.623C65.2152 154.623 65.0133 154.22 64.2057 154.018C63.3981 153.817 61.7829 154.421 60.9752 153.817C60.1676 153.213 60.3695 153.011 60.3695 152.407C60.3695 151.803 61.581 150.795 61.581 150.795C61.581 150.795 62.1867 149.99 63.1962 149.788C64.2057 149.587 65.619 149.788 67.2343 149.788H70.4648C71.2724 149.788 72.6857 149.788 73.0895 150.392Z" fill="#0B4F6C"/>
<path d="M53.5125 139.259C54.2402 139.237 54.9466 140.39 54.9466 140.39L57.0657 143.849C57.0657 143.849 59.7694 147.209 58.9068 149.273C58.6943 149.781 58.4788 149.956 58.1578 150.468C57.8368 150.981 57.1092 151.002 57.1092 151.002L55.9748 150.533L54.9475 149.892C54.9475 149.892 54.4338 149.572 53.9629 148.803C53.492 148.035 52.9355 148.163 52.9355 148.163C52.9355 148.163 52.4861 148.12 51.8869 148.697C51.2877 149.273 50.9454 150.96 50.0038 151.323C49.0621 151.686 48.9979 151.409 48.4842 151.088C47.9705 150.768 47.7564 149.209 47.7564 149.209C47.7564 149.209 47.3925 148.27 47.7562 147.309C48.1199 146.348 49.0401 145.259 49.8961 143.892L51.608 141.159C52.0359 140.476 52.7849 139.28 53.5125 139.259Z" fill="#0B4F6C"/>
<path d="M52.9727 184.757C53.7004 184.778 54.4067 183.625 54.4067 183.625L56.5258 180.166C56.5258 180.166 59.2296 176.807 58.3669 174.743C58.1545 174.235 57.9389 174.06 57.618 173.547C57.297 173.035 56.5693 173.013 56.5693 173.013L55.435 173.483L54.4076 174.123C54.4076 174.123 53.894 174.443 53.423 175.212C52.9521 175.981 52.3957 175.853 52.3957 175.853C52.3957 175.853 51.9462 175.895 51.3471 175.319C50.7479 174.742 50.4056 173.055 49.4639 172.692C48.5223 172.329 48.4581 172.607 47.9444 172.927C47.4307 173.247 47.2165 174.806 47.2165 174.806C47.2165 174.806 46.8526 175.745 47.2164 176.706C47.5801 177.667 48.5003 178.756 49.3562 180.123L51.0681 182.856C51.4961 183.54 52.245 184.735 52.9727 184.757Z" fill="#0B4F6C"/>
<path d="M33.6554 150.473C33.2504 151.07 33.858 152.264 33.858 152.264L35.6809 155.846C35.6809 155.846 37.1082 159.864 39.3266 160.224C39.8729 160.312 40.1368 160.224 40.7444 160.224C41.352 160.224 41.7571 159.627 41.7571 159.627L41.9597 158.433V157.239C41.9597 157.239 41.9597 156.642 41.5546 155.846C41.1495 155.05 41.5546 154.652 41.5546 154.652C41.5546 154.652 41.7571 154.254 42.5673 154.055C43.3775 153.856 44.9978 154.453 45.808 153.856C46.6181 153.259 46.4156 153.06 46.4156 152.463C46.4156 151.866 45.2003 150.871 45.2003 150.871C45.2003 150.871 44.5927 150.076 43.58 149.877C42.5673 149.678 41.1495 149.877 39.5292 149.877H36.2885C35.4783 149.877 34.0605 149.877 33.6554 150.473Z" fill="#0B4F6C"/>
<path d="M72.9503 173.679C73.3554 173.082 72.7477 171.888 72.7477 171.888L70.9249 168.306C70.9249 168.306 69.4975 164.288 67.2791 163.928C66.7328 163.84 66.4689 163.928 65.8613 163.928C65.2537 163.928 64.8486 164.525 64.8486 164.525L64.646 165.719V166.913C64.646 166.913 64.646 167.51 65.0511 168.306C65.4562 169.102 65.0511 169.5 65.0511 169.5C65.0511 169.5 64.8486 169.898 64.0384 170.097C63.2283 170.296 61.6079 169.699 60.7977 170.296C59.9876 170.893 60.1901 171.092 60.1901 171.689C60.1901 172.286 61.4054 173.281 61.4054 173.281C61.4054 173.281 62.013 174.077 63.0257 174.276C64.0384 174.475 65.4562 174.276 67.0765 174.276H70.3172C71.1274 174.276 72.5452 174.276 72.9503 173.679Z" fill="#0B4F6C"/>
<path d="M33.2516 173.276C32.8465 172.679 33.4542 171.485 33.4542 171.485L35.277 167.903C35.277 167.903 36.7044 163.885 38.9228 163.525C39.4691 163.437 39.733 163.525 40.3406 163.525C40.9482 163.525 41.3533 164.122 41.3533 164.122L41.5559 165.316V166.51C41.5559 166.51 41.5559 167.107 41.1508 167.903C40.7457 168.699 41.1508 169.097 41.1508 169.097C41.1508 169.097 41.3533 169.495 42.1635 169.694C42.9736 169.893 44.594 169.296 45.4042 169.893C46.2143 170.49 46.0118 170.689 46.0118 171.286C46.0118 171.883 44.7965 172.878 44.7965 172.878C44.7965 172.878 44.1889 173.674 43.1762 173.873C42.1635 174.072 40.7457 173.873 39.1253 173.873H35.8847C35.0745 173.873 33.6567 173.873 33.2516 173.276Z" fill="#0B4F6C"/>
<path d="M102.366 169.849C100.75 170.05 95.7029 170.05 94.4914 169.647C93.28 169.244 93.4819 168.841 92.4724 167.431C91.4629 166.021 91.4197 165.618 90.4533 165.215C89.487 164.813 88.8381 165.618 89.2419 166.625L90.4533 169.647C90.4533 169.647 91.261 171.863 91.4629 172.669C91.6648 173.475 92.0686 174.079 91.4629 174.683C90.8571 175.288 89.8476 174.885 87.8286 174.885C85.8095 174.885 85.4057 173.877 85.4057 173.877L84.1943 171.662L81.9733 166.625L80.7619 165.014C80.7619 165.014 79.9543 164.007 79.3486 164.208C78.7429 164.41 79.3486 165.417 79.7524 166.223C80.1562 167.028 80.9638 168.841 81.1657 169.244C81.3676 169.647 82.1752 171.662 81.3676 171.863C80.56 172.064 77.5314 172.064 76.32 171.662C75.1086 171.259 73.8971 168.438 73.8971 168.438L72.2819 164.007V160.179L74.301 155.949L76.9257 152.726C76.9257 152.726 79.9543 152.323 81.1657 152.726C82.3771 153.129 80.7619 155.546 80.7619 155.546L79.9543 157.359C79.9543 157.359 79.3486 158.971 79.7524 159.575C80.1562 160.179 81.1657 159.575 81.1657 159.575L83.1848 155.143L84.5981 153.33C84.5981 153.33 85.2038 150.309 86.819 150.107C88.4343 149.906 91.8667 149.503 91.8667 150.107C91.8667 150.712 92.2705 151.719 92.2705 151.719L91.8667 153.33L90.2514 155.546C90.2514 155.546 88.6362 159.575 89.2419 160.179C89.8476 160.784 91.261 160.179 91.261 160.179C91.261 160.179 91.261 159.172 91.8667 158.165C92.4724 157.158 92.8762 155.546 94.2895 155.143C95.7029 154.74 96.3086 155.143 97.3181 155.143C98.3276 155.143 101.475 154.87 103.375 156.352C105.349 157.892 106 159.575 106 162.194C106 164.813 105.596 165.417 105.394 166.625C105.192 167.834 103.981 169.647 102.366 169.849Z" fill="#0B4F6C"/>
<path d="M34.9785 115.224C35.961 116.519 38.4848 120.88 38.7408 122.128C38.9968 123.376 38.5461 123.403 37.8269 124.981C37.1077 126.558 36.7796 126.797 36.913 127.833C37.0465 128.869 38.0704 129.027 38.7427 128.175L40.7598 125.617C40.7598 125.617 42.2794 123.811 42.8779 123.234C43.4764 122.657 43.799 122.006 44.6265 122.227C45.4539 122.448 45.6089 123.522 46.6185 125.266C47.628 127.011 46.9556 127.863 46.9556 127.863L45.6379 130.018L42.377 134.455L41.5839 136.308C41.5839 136.308 41.1134 137.509 41.5911 137.932C42.0688 138.354 42.6403 137.327 43.1378 136.575C43.6353 135.824 44.8052 134.219 45.0539 133.843C45.3027 133.468 46.6474 131.763 47.2261 132.36C47.8048 132.957 49.319 135.574 49.5751 136.822C49.8311 138.07 47.9888 140.527 47.9888 140.527L44.9496 144.138L41.6274 146.052L36.9459 146.422L32.8359 145.766C32.8359 145.766 30.9719 143.351 30.7159 142.103C30.4599 140.854 33.3658 141.041 33.3658 141.041L35.3433 140.833C35.3433 140.833 37.0449 140.55 37.3676 139.899C37.6903 139.248 36.6609 138.678 36.6609 138.678L31.8046 139.149L29.5243 138.835C29.5243 138.835 26.5986 139.822 25.6161 138.527C24.6336 137.232 22.5677 134.468 23.0923 134.166C23.6168 133.864 24.2892 133.011 24.2892 133.011L25.89 132.554L28.621 132.842C28.621 132.842 32.9257 132.223 33.1474 131.398C33.3691 130.572 32.1379 129.653 32.1379 129.653C32.1379 129.653 31.2636 130.157 30.0865 130.137C28.9093 130.117 27.3086 130.574 26.2522 129.554C25.1959 128.535 25.2427 127.81 24.7379 126.938C24.2332 126.065 22.4219 123.483 22.7585 121.1C23.1081 118.624 24.2438 117.22 26.5169 115.911C28.79 114.602 29.5165 114.648 30.6665 114.218C31.8166 113.789 33.996 113.929 34.9785 115.224Z" fill="#0B4F6C"/>
<path d="M72.4265 116.029C71.444 117.324 68.9202 121.686 68.6642 122.934C68.4082 124.182 68.8589 124.209 69.5781 125.786C70.2973 127.364 70.6254 127.602 70.492 128.639C70.3585 129.675 69.3347 129.833 68.6623 128.98L66.6452 126.423C66.6452 126.423 65.1256 124.617 64.5271 124.04C63.9287 123.463 63.606 122.811 62.7786 123.033C61.9511 123.254 61.7961 124.328 60.7866 126.072C59.777 127.817 60.4494 128.669 60.4494 128.669L61.7671 130.824L65.028 135.261L65.8211 137.113C65.8211 137.113 66.2916 138.315 65.8139 138.737C65.3362 139.16 64.7648 138.133 64.2672 137.381C63.7697 136.629 62.5998 135.025 62.3511 134.649C62.1023 134.273 60.7576 132.568 60.1789 133.165C59.6003 133.763 58.086 136.379 57.83 137.627C57.574 138.876 59.4162 141.332 59.4162 141.332L62.4554 144.944L65.7776 146.858L70.4591 147.228L74.5691 146.572C74.5691 146.572 76.4331 144.157 76.6891 142.908C76.9451 141.66 74.0393 141.847 74.0393 141.847L72.0618 141.639C72.0618 141.639 70.3601 141.356 70.0374 140.705C69.7148 140.054 70.7441 139.484 70.7441 139.484L75.6004 139.955L77.8808 139.64C77.8808 139.64 80.8065 140.628 81.7889 139.333C82.7714 138.038 84.8373 135.274 84.3127 134.972C83.7882 134.67 83.1158 133.817 83.1158 133.817L81.515 133.36L78.784 133.648C78.784 133.648 74.4793 133.029 74.2576 132.204C74.0359 131.378 75.2671 130.459 75.2671 130.459C75.2671 130.459 76.1414 130.963 77.3185 130.943C78.4957 130.923 80.0964 131.38 81.1528 130.36C82.2092 129.34 82.1623 128.616 82.6671 127.743C83.1718 126.871 84.9831 124.289 84.6465 121.905C84.2969 119.43 83.1612 118.026 80.8881 116.717C78.615 115.407 77.8886 115.454 76.7385 115.024C75.5884 114.594 73.409 114.735 72.4265 116.029Z" fill="#0B4F6C"/>
<path d="M70.8113 208.776C69.8288 207.481 67.305 203.12 67.049 201.872C66.793 200.624 67.2437 200.597 67.9629 199.019C68.6821 197.442 69.0102 197.203 68.8768 196.167C68.7433 195.131 67.7194 194.973 67.0471 195.825L65.03 198.383C65.03 198.383 63.5103 200.189 62.9119 200.766C62.3134 201.343 61.9907 201.994 61.1633 201.773C60.3359 201.552 60.1808 200.478 59.1713 198.734C58.1618 196.989 58.8342 196.137 58.8342 196.137L60.1519 193.982L63.4128 189.545L64.2059 187.692C64.2059 187.692 64.6764 186.491 64.1987 186.068C63.7209 185.646 63.1495 186.673 62.652 187.425C62.1545 188.176 60.9846 189.781 60.7359 190.157C60.4871 190.532 59.1423 192.237 58.5637 191.64C57.985 191.043 56.4707 188.426 56.2147 187.178C55.9587 185.93 57.801 183.473 57.801 183.473L60.8402 179.862L64.1624 177.948L68.8438 177.578L72.9539 178.234C72.9539 178.234 74.8179 180.649 75.0739 181.897C75.3299 183.146 72.424 182.959 72.424 182.959L70.4465 183.167C70.4465 183.167 68.7448 183.45 68.4222 184.101C68.0995 184.752 69.1288 185.322 69.1288 185.322L73.9852 184.851L76.2655 185.165C76.2655 185.165 79.1912 184.178 80.1737 185.473C81.1562 186.768 83.2221 189.532 82.6975 189.834C82.1729 190.136 81.5006 190.989 81.5006 190.989L79.8998 191.446L77.1688 191.158C77.1688 191.158 72.8641 191.777 72.6424 192.602C72.4207 193.428 73.6519 194.347 73.6519 194.347C73.6519 194.347 74.5262 193.843 75.7033 193.863C76.8804 193.883 78.4812 193.426 79.5375 194.446C80.5939 195.465 80.5471 196.19 81.0518 197.062C81.5566 197.935 83.3679 200.517 83.0313 202.9C82.6816 205.376 81.546 206.78 79.2729 208.089C76.9998 209.398 76.2733 209.352 75.1232 209.782C73.9732 210.211 71.7938 210.071 70.8113 208.776Z" fill="#0B4F6C"/>
<path d="M34.1709 208.776C35.1534 207.481 37.6772 203.12 37.9332 201.872C38.1892 200.624 37.7385 200.597 37.0193 199.019C36.3001 197.442 35.972 197.203 36.1054 196.167C36.2389 195.131 37.2627 194.973 37.9351 195.825L39.9522 198.383C39.9522 198.383 41.4718 200.189 42.0703 200.766C42.6687 201.343 42.9914 201.994 43.8188 201.773C44.6463 201.552 44.8013 200.478 45.8108 198.734C46.8204 196.989 46.148 196.137 46.148 196.137L44.8303 193.982L41.5694 189.545L40.7763 187.692C40.7763 187.692 40.3058 186.491 40.7835 186.068C41.2612 185.646 41.8326 186.673 42.3302 187.425C42.8277 188.176 43.9976 189.781 44.2463 190.157C44.4951 190.532 45.8398 192.237 46.4185 191.64C46.9971 191.043 48.5114 188.426 48.7674 187.178C49.0234 185.93 47.1812 183.473 47.1812 183.473L44.142 179.862L40.8198 177.948L36.1383 177.578L32.0283 178.234C32.0283 178.234 30.1643 180.649 29.9083 181.897C29.6523 183.146 32.5581 182.959 32.5581 182.959L34.5356 183.167C34.5356 183.167 36.2373 183.45 36.56 184.101C36.8826 184.752 35.8533 185.322 35.8533 185.322L30.997 184.851L28.7166 185.165C28.7166 185.165 25.7909 184.178 24.8085 185.473C23.826 186.768 21.7601 189.532 22.2847 189.834C22.8092 190.136 23.4816 190.989 23.4816 190.989L25.0824 191.446L27.8134 191.158C27.8134 191.158 32.1181 191.777 32.3398 192.602C32.5615 193.428 31.3303 194.347 31.3303 194.347C31.3303 194.347 30.456 193.843 29.2789 193.863C28.1017 193.883 26.501 193.426 25.4446 194.446C24.3882 195.465 24.4351 196.19 23.9303 197.062C23.4256 197.935 21.6143 200.517 21.9509 202.9C22.3005 205.376 23.4362 206.78 25.7093 208.089C27.9824 209.398 28.7088 209.352 29.8589 209.782C31.009 210.211 33.1884 210.071 34.1709 208.776Z" fill="#0B4F6C"/>
<path d="M3.63429 168.64C5.24952 168.841 10.2971 168.841 11.5086 168.438C12.72 168.036 12.5181 167.633 13.5276 166.223C14.5371 164.813 14.5803 164.41 15.5467 164.007C16.513 163.604 17.1619 164.41 16.7581 165.417L15.5467 168.438C15.5467 168.438 14.739 170.654 14.5371 171.46C14.3352 172.266 13.9314 172.87 14.5371 173.475C15.1429 174.079 16.1524 173.676 18.1714 173.676C20.1905 173.676 20.5943 172.669 20.5943 172.669L21.8057 170.453L24.0267 165.417L25.2381 163.805C25.2381 163.805 26.0457 162.798 26.6514 163C27.2571 163.201 26.6514 164.208 26.2476 165.014C25.8438 165.82 25.0362 167.633 24.8343 168.036C24.6324 168.438 23.8248 170.453 24.6324 170.654C25.44 170.856 28.4686 170.856 29.68 170.453C30.8914 170.05 32.1029 167.23 32.1029 167.23L33.7181 162.798V158.971L31.699 154.74L29.0743 151.517C29.0743 151.517 26.0457 151.114 24.8343 151.517C23.6229 151.92 25.2381 154.338 25.2381 154.338L26.0457 156.151C26.0457 156.151 26.6514 157.762 26.2476 158.366C25.8438 158.971 24.8343 158.366 24.8343 158.366L22.8152 153.935L21.4019 152.122C21.4019 152.122 20.7962 149.1 19.1809 148.899C17.5657 148.697 14.1333 148.294 14.1333 148.899C14.1333 149.503 13.7295 150.51 13.7295 150.51L14.1333 152.122L15.7486 154.338C15.7486 154.338 17.3638 158.366 16.7581 158.971C16.1524 159.575 14.739 158.971 14.739 158.971C14.739 158.971 14.739 157.964 14.1333 156.956C13.5276 155.949 13.1238 154.338 11.7105 153.935C10.2971 153.532 9.69142 153.935 8.6819 153.935C7.67237 153.935 4.52516 153.661 2.62476 155.143C0.650673 156.683 0 158.366 0 160.985C0 163.604 0.40381 164.208 0.605714 165.417C0.807619 166.625 2.01905 168.438 3.63429 168.64Z" fill="#0B4F6C"/>
<path d="M173.177 133.27C173.931 133.026 175.063 130.249 175.063 130.249C175.063 130.249 176.306 132.864 177.451 133.522C178.529 134.141 181.097 134.152 181.097 134.152C181.097 134.152 179.463 136.418 179.463 137.048C179.463 137.677 181.223 140.573 181.223 140.573C181.223 140.573 178.583 140.321 177.829 140.699C177.074 141.076 175.063 143.846 175.063 143.846C175.063 143.846 174.434 141.202 172.674 140.573C170.914 139.943 168.777 139.943 168.777 139.943C168.777 139.943 170.663 137.803 170.663 136.796C170.663 135.789 169.28 133.9 169.28 133.9C169.28 133.9 172.423 133.515 173.177 133.27Z" fill="#0B4F6C"/>
<path d="M187.509 129.745C187.76 130.123 187.383 130.878 187.383 130.878L186.251 133.145C186.251 133.145 185.366 135.687 183.989 135.914C183.649 135.97 183.486 135.914 183.109 135.914C182.731 135.914 182.48 135.537 182.48 135.537L182.354 134.781V134.026C182.354 134.026 182.354 133.648 182.606 133.145C182.857 132.641 182.606 132.389 182.606 132.389C182.606 132.389 182.48 132.137 181.977 132.011C181.474 131.886 180.469 132.263 179.966 131.886C179.463 131.508 179.589 131.382 179.589 131.004C179.589 130.627 180.343 129.997 180.343 129.997C180.343 129.997 180.72 129.493 181.349 129.368C181.977 129.242 182.857 129.368 183.863 129.368H185.874C186.377 129.368 187.257 129.368 187.509 129.745Z" fill="#0B4F6C"/>
<path d="M175.319 122.787C175.772 122.773 176.212 123.494 176.212 123.494L177.531 125.656C177.531 125.656 179.215 127.755 178.678 129.045C178.546 129.363 178.411 129.472 178.211 129.793C178.012 130.113 177.559 130.126 177.559 130.126L176.852 129.833L176.213 129.433C176.213 129.433 175.893 129.232 175.6 128.752C175.306 128.272 174.96 128.352 174.96 128.352C174.96 128.352 174.68 128.325 174.307 128.685C173.934 129.046 173.721 130.1 173.134 130.327C172.548 130.554 172.508 130.38 172.188 130.18C171.868 129.98 171.735 129.006 171.735 129.006C171.735 129.006 171.509 128.419 171.735 127.818C171.961 127.218 172.534 126.537 173.067 125.683L174.133 123.974C174.4 123.547 174.866 122.8 175.319 122.787Z" fill="#0B4F6C"/>
<path d="M174.983 151.223C175.436 151.236 175.876 150.516 175.876 150.516L177.195 148.354C177.195 148.354 178.879 146.254 178.342 144.964C178.209 144.647 178.075 144.537 177.875 144.217C177.675 143.897 177.222 143.883 177.222 143.883L176.516 144.177L175.876 144.577C175.876 144.577 175.557 144.777 175.263 145.258C174.97 145.738 174.624 145.658 174.624 145.658C174.624 145.658 174.344 145.685 173.971 145.324C173.598 144.964 173.385 143.91 172.798 143.683C172.212 143.456 172.172 143.629 171.852 143.829C171.532 144.029 171.399 145.004 171.399 145.004C171.399 145.004 171.172 145.591 171.399 146.191C171.625 146.792 172.198 147.473 172.731 148.327L173.797 150.035C174.064 150.462 174.53 151.21 174.983 151.223Z" fill="#0B4F6C"/>
<path d="M162.955 129.796C162.703 130.169 163.081 130.915 163.081 130.915L164.216 133.154C164.216 133.154 165.105 135.665 166.486 135.89C166.827 135.945 166.991 135.89 167.369 135.89C167.747 135.89 168 135.517 168 135.517L168.126 134.771V134.024C168.126 134.024 168.126 133.651 167.874 133.154C167.621 132.656 167.874 132.408 167.874 132.408C167.874 132.408 168 132.159 168.504 132.035C169.009 131.91 170.017 132.283 170.522 131.91C171.026 131.537 170.9 131.413 170.9 131.04C170.9 130.666 170.144 130.045 170.144 130.045C170.144 130.045 169.765 129.547 169.135 129.423C168.504 129.298 167.621 129.423 166.612 129.423H164.595C164.09 129.423 163.207 129.423 162.955 129.796Z" fill="#0B4F6C"/>
<path d="M187.422 144.299C187.674 143.926 187.296 143.18 187.296 143.18L186.161 140.941C186.161 140.941 185.272 138.43 183.891 138.205C183.551 138.15 183.386 138.205 183.008 138.205C182.63 138.205 182.377 138.578 182.377 138.578L182.251 139.325V140.071C182.251 140.071 182.251 140.444 182.504 140.941C182.756 141.439 182.504 141.687 182.504 141.687C182.504 141.687 182.377 141.936 181.873 142.061C181.369 142.185 180.36 141.812 179.855 142.185C179.351 142.558 179.477 142.682 179.477 143.055C179.477 143.429 180.234 144.05 180.234 144.05C180.234 144.05 180.612 144.548 181.242 144.672C181.873 144.797 182.756 144.672 183.765 144.672H185.782C186.287 144.672 187.17 144.672 187.422 144.299Z" fill="#0B4F6C"/>
<path d="M162.704 144.047C162.452 143.674 162.83 142.928 162.83 142.928L163.965 140.689C163.965 140.689 164.854 138.178 166.235 137.953C166.575 137.898 166.739 137.953 167.118 137.953C167.496 137.953 167.748 138.327 167.748 138.327L167.874 139.073V139.819C167.874 139.819 167.874 140.192 167.622 140.689C167.37 141.187 167.622 141.436 167.622 141.436C167.622 141.436 167.748 141.684 168.253 141.809C168.757 141.933 169.766 141.56 170.271 141.933C170.775 142.306 170.649 142.431 170.649 142.804C170.649 143.177 169.892 143.799 169.892 143.799C169.892 143.799 169.514 144.296 168.883 144.42C168.253 144.545 167.37 144.42 166.361 144.42H164.343C163.839 144.42 162.956 144.42 162.704 144.047Z" fill="#0B4F6C"/>
<path d="M205.737 141.905C204.731 142.031 201.589 142.031 200.834 141.779C200.08 141.528 200.206 141.276 199.577 140.395C198.949 139.513 198.922 139.261 198.32 139.01C197.718 138.758 197.314 139.261 197.566 139.891L198.32 141.779C198.32 141.779 198.823 143.164 198.949 143.668C199.074 144.172 199.326 144.549 198.949 144.927C198.571 145.305 197.943 145.053 196.686 145.053C195.429 145.053 195.177 144.423 195.177 144.423L194.423 143.038L193.04 139.891L192.286 138.884C192.286 138.884 191.783 138.254 191.406 138.38C191.029 138.506 191.406 139.136 191.657 139.639C191.909 140.143 192.411 141.276 192.537 141.528C192.663 141.779 193.166 143.038 192.663 143.164C192.16 143.29 190.274 143.29 189.52 143.038C188.766 142.787 188.011 141.024 188.011 141.024L187.006 138.254V135.862L188.263 133.218L189.897 131.204C189.897 131.204 191.783 130.952 192.537 131.204C193.291 131.456 192.286 132.966 192.286 132.966L191.783 134.099C191.783 134.099 191.406 135.107 191.657 135.484C191.909 135.862 192.537 135.484 192.537 135.484L193.794 132.715L194.674 131.581C194.674 131.581 195.051 129.693 196.057 129.567C197.063 129.441 199.2 129.189 199.2 129.567C199.2 129.945 199.451 130.574 199.451 130.574L199.2 131.581L198.194 132.966C198.194 132.966 197.189 135.484 197.566 135.862C197.943 136.24 198.823 135.862 198.823 135.862C198.823 135.862 198.823 135.233 199.2 134.603C199.577 133.974 199.829 132.966 200.709 132.715C201.589 132.463 201.966 132.715 202.594 132.715C203.223 132.715 205.182 132.543 206.366 133.47C207.595 134.432 208 135.484 208 137.121C208 138.758 207.749 139.136 207.623 139.891C207.497 140.646 206.743 141.779 205.737 141.905Z" fill="#0B4F6C"/>
<path d="M163.779 107.765C164.391 108.574 165.962 111.3 166.122 112.08C166.281 112.86 166 112.877 165.553 113.863C165.105 114.849 164.9 114.998 164.984 115.646C165.067 116.293 165.704 116.392 166.123 115.859L167.379 114.261C167.379 114.261 168.325 113.132 168.698 112.771C169.07 112.41 169.271 112.004 169.786 112.142C170.301 112.28 170.398 112.951 171.027 114.041C171.655 115.132 171.237 115.665 171.237 115.665L170.416 117.011L168.386 119.784L167.892 120.942C167.892 120.942 167.599 121.693 167.896 121.957C168.194 122.221 168.55 121.58 168.859 121.11C169.169 120.64 169.898 119.637 170.052 119.402C170.207 119.167 171.045 118.102 171.405 118.475C171.765 118.848 172.708 120.483 172.867 121.264C173.027 122.044 171.88 123.579 171.88 123.579L169.987 125.836L167.919 127.032L165.004 127.264L162.445 126.854C162.445 126.854 161.284 125.344 161.125 124.564C160.966 123.784 162.775 123.901 162.775 123.901L164.006 123.77C164.006 123.77 165.066 123.594 165.267 123.187C165.468 122.78 164.827 122.424 164.827 122.424L161.803 122.718L160.383 122.522C160.383 122.522 158.561 123.139 157.95 122.33C157.338 121.52 156.052 119.793 156.378 119.604C156.705 119.415 157.123 118.882 157.123 118.882L158.12 118.596L159.821 118.776C159.821 118.776 162.501 118.39 162.639 117.874C162.777 117.358 162.01 116.783 162.01 116.783C162.01 116.783 161.466 117.098 160.733 117.086C160 117.073 159.003 117.359 158.346 116.722C157.688 116.084 157.717 115.631 157.403 115.086C157.089 114.541 155.961 112.927 156.17 111.437C156.388 109.89 157.095 109.013 158.511 108.194C159.926 107.376 160.378 107.405 161.094 107.137C161.81 106.868 163.167 106.955 163.779 107.765Z" fill="#0B4F6C"/>
<path d="M187.096 108.268C186.484 109.078 184.913 111.804 184.753 112.584C184.594 113.364 184.874 113.381 185.322 114.366C185.77 115.352 185.974 115.502 185.891 116.149C185.808 116.797 185.171 116.896 184.752 116.363L183.496 114.764C183.496 114.764 182.55 113.636 182.177 113.275C181.805 112.914 181.604 112.507 181.089 112.645C180.573 112.784 180.477 113.455 179.848 114.545C179.22 115.635 179.638 116.168 179.638 116.168L180.459 117.515L182.489 120.288L182.983 121.446C182.983 121.446 183.276 122.197 182.978 122.461C182.681 122.725 182.325 122.083 182.015 121.613C181.706 121.143 180.977 120.141 180.822 119.906C180.667 119.671 179.83 118.605 179.47 118.978C179.11 119.352 178.167 120.987 178.007 121.767C177.848 122.547 178.995 124.083 178.995 124.083L180.887 126.34L182.956 127.536L185.871 127.768L188.43 127.357C188.43 127.357 189.59 125.848 189.75 125.068C189.909 124.288 188.1 124.404 188.1 124.404L186.869 124.274C186.869 124.274 185.809 124.098 185.608 123.691C185.407 123.284 186.048 122.927 186.048 122.927L189.072 123.222L190.492 123.025C190.492 123.025 192.313 123.642 192.925 122.833C193.537 122.024 194.823 120.296 194.497 120.107C194.17 119.918 193.751 119.386 193.751 119.386L192.755 119.1L191.054 119.28C191.054 119.28 188.374 118.893 188.236 118.377C188.098 117.861 188.864 117.287 188.864 117.287C188.864 117.287 189.409 117.602 190.142 117.589C190.875 117.577 191.871 117.862 192.529 117.225C193.187 116.588 193.158 116.135 193.472 115.59C193.786 115.044 194.914 113.43 194.704 111.941C194.487 110.394 193.78 109.516 192.364 108.698C190.949 107.88 190.497 107.909 189.781 107.64C189.064 107.371 187.707 107.459 187.096 108.268Z" fill="#0B4F6C"/>
<path d="M186.09 166.235C185.478 165.426 183.907 162.7 183.747 161.92C183.588 161.14 183.869 161.123 184.317 160.137C184.764 159.151 184.969 159.002 184.886 158.354C184.802 157.707 184.165 157.608 183.746 158.141L182.49 159.739C182.49 159.739 181.544 160.868 181.172 161.229C180.799 161.59 180.598 161.996 180.083 161.858C179.568 161.72 179.471 161.049 178.843 159.959C178.214 158.868 178.633 158.335 178.633 158.335L179.453 156.989L181.483 154.216L181.977 153.058C181.977 153.058 182.27 152.307 181.973 152.043C181.675 151.779 181.32 152.42 181.01 152.89C180.7 153.36 179.972 154.363 179.817 154.598C179.662 154.833 178.824 155.898 178.464 155.525C178.104 155.152 177.161 153.517 177.002 152.736C176.842 151.956 177.989 150.421 177.989 150.421L179.882 148.164L181.95 146.968L184.865 146.736L187.424 147.146C187.424 147.146 188.585 148.656 188.744 149.436C188.904 150.216 187.094 150.099 187.094 150.099L185.863 150.23C185.863 150.23 184.803 150.406 184.602 150.813C184.402 151.22 185.042 151.576 185.042 151.576L188.066 151.282L189.486 151.478C189.486 151.478 191.308 150.861 191.919 151.67C192.531 152.48 193.818 154.207 193.491 154.396C193.164 154.585 192.746 155.118 192.746 155.118L191.749 155.404L190.049 155.224C190.049 155.224 187.368 155.61 187.23 156.126C187.092 156.642 187.859 157.217 187.859 157.217C187.859 157.217 188.403 156.902 189.136 156.914C189.869 156.927 190.866 156.641 191.523 157.278C192.181 157.916 192.152 158.369 192.466 158.914C192.781 159.459 193.908 161.073 193.699 162.563C193.481 164.11 192.774 164.987 191.359 165.806C189.943 166.624 189.491 166.595 188.775 166.863C188.059 167.132 186.702 167.045 186.09 166.235Z" fill="#0B4F6C"/>
<path d="M163.276 166.235C163.888 165.426 165.459 162.7 165.619 161.92C165.778 161.14 165.498 161.123 165.05 160.137C164.602 159.151 164.398 159.002 164.481 158.354C164.564 157.707 165.201 157.608 165.62 158.141L166.876 159.739C166.876 159.739 167.822 160.868 168.195 161.229C168.567 161.59 168.768 161.996 169.283 161.858C169.799 161.72 169.895 161.049 170.524 159.959C171.152 158.868 170.734 158.335 170.734 158.335L169.913 156.989L167.883 154.216L167.389 153.058C167.389 153.058 167.096 152.307 167.394 152.043C167.691 151.779 168.047 152.42 168.357 152.89C168.666 153.36 169.395 154.363 169.55 154.598C169.704 154.833 170.542 155.898 170.902 155.525C171.262 155.152 172.205 153.517 172.365 152.736C172.524 151.956 171.377 150.421 171.377 150.421L169.485 148.164L167.416 146.968L164.501 146.736L161.942 147.146C161.942 147.146 160.782 148.656 160.622 149.436C160.463 150.216 162.272 150.099 162.272 150.099L163.503 150.23C163.503 150.23 164.563 150.406 164.764 150.813C164.965 151.22 164.324 151.576 164.324 151.576L161.3 151.282L159.88 151.478C159.88 151.478 158.059 150.861 157.447 151.67C156.835 152.48 155.549 154.207 155.875 154.396C156.202 154.585 156.621 155.118 156.621 155.118L157.617 155.404L159.318 155.224C159.318 155.224 161.998 155.61 162.136 156.126C162.274 156.642 161.508 157.217 161.508 157.217C161.508 157.217 160.963 156.902 160.23 156.914C159.497 156.927 158.501 156.641 157.843 157.278C157.185 157.916 157.214 158.369 156.9 158.914C156.586 159.459 155.458 161.073 155.668 162.563C155.885 164.11 156.592 164.987 158.008 165.806C159.423 166.624 159.875 166.595 160.591 166.863C161.307 167.132 162.664 167.045 163.276 166.235Z" fill="#0B4F6C"/>
<path d="M144.263 141.15C145.269 141.276 148.411 141.276 149.166 141.024C149.92 140.772 149.794 140.52 150.423 139.639C151.051 138.758 151.078 138.506 151.68 138.254C152.282 138.002 152.686 138.506 152.434 139.136L151.68 141.024C151.68 141.024 151.177 142.409 151.051 142.913C150.926 143.416 150.674 143.794 151.051 144.172C151.429 144.549 152.057 144.297 153.314 144.297C154.571 144.297 154.823 143.668 154.823 143.668L155.577 142.283L156.96 139.136L157.714 138.128C157.714 138.128 158.217 137.499 158.594 137.625C158.971 137.751 158.594 138.38 158.343 138.884C158.091 139.387 157.589 140.52 157.463 140.772C157.337 141.024 156.834 142.283 157.337 142.409C157.84 142.535 159.726 142.535 160.48 142.283C161.234 142.031 161.989 140.269 161.989 140.269L162.994 137.499V135.107L161.737 132.463L160.103 130.448C160.103 130.448 158.217 130.197 157.463 130.448C156.709 130.7 157.714 132.211 157.714 132.211L158.217 133.344C158.217 133.344 158.594 134.351 158.343 134.729C158.091 135.107 157.463 134.729 157.463 134.729L156.206 131.959L155.326 130.826C155.326 130.826 154.949 128.938 153.943 128.812C152.937 128.686 150.8 128.434 150.8 128.812C150.8 129.189 150.549 129.819 150.549 129.819L150.8 130.826L151.806 132.211C151.806 132.211 152.811 134.729 152.434 135.107C152.057 135.484 151.177 135.107 151.177 135.107C151.177 135.107 151.177 134.477 150.8 133.848C150.423 133.218 150.171 132.211 149.291 131.959C148.411 131.707 148.034 131.959 147.406 131.959C146.777 131.959 144.818 131.788 143.634 132.715C142.405 133.677 142 134.729 142 136.366C142 138.002 142.251 138.38 142.377 139.136C142.503 139.891 143.257 141.024 144.263 141.15Z" fill="#0B4F6C"/>
<path d="M202.32 -35.1973C204.121 -36.0816 204.932 -37.8095 206.456 -38.2449C207.98 -38.6803 208.85 -37.5918 208.85 -37.5918C208.85 -37.5918 210.156 -36.5034 210.156 -35.415C210.156 -34.3265 208.633 -32.585 208.633 -32.585C208.633 -32.585 206.324 -30.9644 204.497 -30.4082C202.051 -29.664 198.619 -29.7551 197.966 -30.4082C197.313 -31.0612 198.184 -33.8912 198.184 -33.8912C198.184 -33.8912 200.799 -34.4507 202.32 -35.1973Z" fill="#0B4F6C"/>
<path d="M207.327 -27.1429C203.993 -25.642 198.837 -28.449 197.966 -27.1429C197.095 -25.8367 197.29 -26.2762 197.095 -25.619C196.854 -24.804 196.771 -24.2279 197.095 -23.4422C197.349 -22.8285 198.184 -22.1361 198.184 -22.1361L202.973 -21.483L206.456 -20.8299C206.456 -20.8299 208.85 -20.3946 209.721 -20.8299C210.592 -21.2653 211.245 -22.5714 211.245 -22.5714C211.245 -22.5714 212.307 -24.5252 213.204 -25.619C213.967 -26.5485 214.327 -26.765 214.946 -27.7959C215.499 -28.718 216.252 -30.4082 216.252 -30.4082V-32.585L215.381 -33.2381H213.204C213.204 -33.2381 210.342 -28.5005 207.327 -27.1429Z" fill="#0B4F6C"/>
<path d="M219.735 -28.449L221.912 -28.2313L223 -27.7959V-25.619L219.735 -20.1769C219.735 -20.1769 215.381 -14.0816 213.204 -12.7755C211.027 -11.4694 203.844 -13.2109 201.884 -13.2109C199.925 -13.2109 196.007 -15.1701 196.007 -15.1701V-18.2177C196.007 -18.2177 196.225 -18.4354 197.095 -18.8707C197.966 -19.3061 208.85 -16.9116 211.245 -18.2177C213.639 -19.5238 213.857 -21.483 215.381 -23.6599C216.905 -25.8367 219.288 -27.8211 219.735 -28.449Z" fill="#0B4F6C"/>
<path d="M211.245 -6.2449C208.633 -8.20408 197.966 -11.034 197.966 -9.5102C197.966 -7.9864 198.184 -7.11565 198.184 -7.11565L202.973 -0.149661L205.585 3.55102L213.204 5.72789C213.204 5.72789 218.646 6.81633 218.864 5.72789C219.082 4.63945 217.776 3.55102 217.776 3.55102C217.776 3.55102 213.857 -4.28572 211.245 -6.2449Z" fill="#0B4F6C"/>
<path d="M250.345 -31.0359C252.049 -29.9772 253.945 -30.2048 255.121 -29.1433C256.298 -28.0817 255.836 -26.7665 255.836 -26.7665C255.836 -26.7665 255.606 -25.0821 254.683 -24.5053C253.76 -23.9285 251.475 -24.298 251.475 -24.298C251.475 -24.298 248.877 -25.3968 247.437 -26.652C245.51 -28.3313 243.769 -31.2904 243.977 -32.1902C244.184 -33.0901 247.046 -33.8513 247.046 -33.8513C247.046 -33.8513 248.906 -31.9297 250.345 -31.0359Z" fill="#0B4F6C"/>
<path d="M246.168 -22.5217C243.129 -24.5531 242.777 -30.4136 241.207 -30.4599C239.638 -30.5062 240.114 -30.5739 239.454 -30.3908C238.635 -30.1637 238.102 -29.9289 237.608 -29.2373C237.222 -28.697 237.077 -27.6221 237.077 -27.6221L239.061 -23.2146L240.353 -19.9148C240.353 -19.9148 241.252 -17.6534 242.083 -17.1457C242.914 -16.6379 244.367 -16.7762 244.367 -16.7762C244.367 -16.7762 246.587 -16.9112 247.99 -16.7298C249.182 -16.5756 249.557 -16.3847 250.759 -16.4064C251.834 -16.4259 253.667 -16.6831 253.667 -16.6831L255.513 -17.8366L255.605 -18.9211L254.451 -20.7672C254.451 -20.7672 248.917 -20.6841 246.168 -22.5217Z" fill="#0B4F6C"/>
<path d="M253.851 -12.6911L254.82 -10.7297L255.027 -9.57591L253.181 -8.42235L246.836 -8.30757C246.836 -8.30757 239.359 -8.76977 237.098 -9.92372C234.837 -11.0777 232.507 -18.0926 231.469 -19.7541C230.431 -21.4156 230.016 -25.7768 230.016 -25.7768L232.6 -27.3917C232.6 -27.3917 232.9 -27.3225 233.731 -26.8148C234.561 -26.3071 238.299 -15.8077 240.675 -14.4691C243.052 -13.1306 244.829 -13.9842 247.482 -13.8455C250.136 -13.7068 253.082 -12.7373 253.851 -12.6911Z" fill="#0B4F6C"/>
<path d="M230.522 -8.12451C230.799 -11.378 227.546 -21.9235 226.254 -21.116C224.962 -20.3085 224.339 -19.6625 224.339 -19.6625L220.969 -11.9097L219.215 -7.73329L221.406 -0.118414C221.406 -0.118414 223.367 5.07359 224.406 4.68142C225.444 4.28925 225.675 2.60481 225.675 2.60481C225.675 2.60481 230.245 -4.87099 230.522 -8.12451Z" fill="#0B4F6C"/>
<path d="M195.27 47.8214C193.566 46.7627 191.67 46.9903 190.494 45.9288C189.317 44.8672 189.779 43.552 189.779 43.552C189.779 43.552 190.01 41.8676 190.933 41.2908C191.856 40.714 194.14 41.0834 194.14 41.0834C194.14 41.0834 196.738 42.1823 198.178 43.4374C200.105 45.1168 201.846 48.0758 201.639 48.9757C201.431 49.8756 198.569 50.6368 198.569 50.6368C198.569 50.6368 196.709 48.7152 195.27 47.8214Z" fill="#0B4F6C"/>
<path d="M199.447 39.3072C202.486 41.3386 202.839 47.1991 204.408 47.2454C205.977 47.2917 205.501 47.3594 206.161 47.1763C206.981 46.9492 207.513 46.7144 208.007 46.0227C208.393 45.4825 208.538 44.4075 208.538 44.4075L206.554 40.0001L205.262 36.7002C205.262 36.7002 204.363 34.4389 203.532 33.9311C202.701 33.4234 201.248 33.5617 201.248 33.5617C201.248 33.5617 199.028 33.6967 197.625 33.5152C196.433 33.3611 196.058 33.1702 194.856 33.1919C193.781 33.2114 191.949 33.4685 191.949 33.4685L190.103 34.6221L190.01 35.7066L191.164 37.5527C191.164 37.5527 196.698 37.4696 199.447 39.3072Z" fill="#0B4F6C"/>
<path d="M191.764 29.4766L190.795 27.5151L190.588 26.3614L192.434 25.2078L198.78 25.093C198.78 25.093 206.256 25.5552 208.517 26.7092C210.778 27.8631 213.108 34.8781 214.146 36.5396C215.184 38.2011 215.599 42.5622 215.599 42.5622L213.015 44.1772C213.015 44.1772 212.715 44.108 211.884 43.6002C211.054 43.0925 207.316 32.5931 204.94 31.2546C202.563 29.916 200.786 30.7696 198.133 30.6309C195.479 30.4922 192.534 29.5227 191.764 29.4766Z" fill="#0B4F6C"/>
<path d="M215.093 24.91C214.816 28.1635 218.069 38.709 219.361 37.9015C220.653 37.094 221.276 36.4479 221.276 36.4479L224.646 28.6951L226.4 24.5188L224.209 16.9039C224.209 16.9039 222.248 11.7119 221.209 12.1041C220.171 12.4962 219.94 14.1807 219.94 14.1807C219.94 14.1807 215.371 21.6565 215.093 24.91Z" fill="#0B4F6C"/>
<path d="M270.817 14.3038C270.613 16.2998 271.648 17.9034 271.21 19.4264C270.772 20.9494 269.387 21.111 269.387 21.111C269.387 21.111 267.772 21.6419 266.849 21.0651C265.926 20.4883 265.256 18.2732 265.256 18.2732C265.256 18.2732 265.105 15.4568 265.602 13.6121C266.267 11.144 268.163 8.28155 269.063 8.0738C269.963 7.86605 271.901 10.1041 271.901 10.1041C271.901 10.1041 270.99 12.6188 270.817 14.3038Z" fill="#0B4F6C"/>
<path d="M261.333 14.2817C261.827 10.6596 266.94 7.77404 266.294 6.34345C265.647 4.91286 265.917 5.31089 265.463 4.79753C264.9 4.16078 264.455 3.78498 263.617 3.64397C262.962 3.53383 261.932 3.87488 261.932 3.87488L258.841 7.5902L256.441 10.1979C256.441 10.1979 254.803 11.9979 254.711 12.967C254.619 13.9362 255.38 15.1821 255.38 15.1821C255.38 15.1821 256.474 17.1179 256.926 18.4586C257.311 19.5978 257.303 20.0182 257.85 21.089C258.339 22.0469 259.373 23.581 259.373 23.581L261.219 24.7345L262.234 24.3422L263.388 22.4961C263.388 22.4961 260.887 17.5581 261.333 14.2817Z" fill="#0B4F6C"/>
<path d="M255.866 25.4965L254.528 27.2272L253.582 27.9196L251.735 26.766L248.851 21.113C248.851 21.113 245.989 14.1908 246.035 11.6526C246.08 9.11434 251.364 3.94509 252.402 2.28361C253.441 0.622126 257.178 -1.66263 257.178 -1.66263L259.763 -0.0476367C259.763 -0.0476367 259.832 0.252338 259.74 1.22148C259.648 2.19061 251.849 10.1522 251.688 12.875C251.527 15.5978 253.073 16.8207 254.111 19.2665C255.15 21.7123 255.57 24.7849 255.866 25.4965Z" fill="#0B4F6C"/>
<path d="M241.534 6.53039C244.58 5.35329 252.633 -2.19293 251.34 -3.00043C250.048 -3.80793 249.194 -4.08472 249.194 -4.08472L240.749 -3.71474L236.226 -3.46049L230.343 1.84726C230.343 1.84726 226.536 5.8857 227.343 6.64709C228.151 7.40849 229.766 6.87762 229.766 6.87762C229.766 6.87762 238.489 7.70748 241.534 6.53039Z" fill="#0B4F6C"/>
<path d="M243.605 52.8502C241.812 53.7501 241.016 55.4851 239.496 55.9338C237.976 56.3824 237.096 55.3016 237.096 55.3016C237.096 55.3016 235.78 54.2246 235.771 53.1362C235.761 52.0478 237.27 50.2931 237.27 50.2931C237.27 50.2931 239.564 48.6524 241.387 48.0802C243.826 47.3147 247.259 47.3759 247.917 48.0232C248.576 48.6706 247.73 51.508 247.73 51.508C247.73 51.508 245.119 52.0904 243.605 52.8502Z" fill="#0B4F6C"/>
<path d="M238.529 44.8397C241.849 43.3099 247.029 46.0717 247.889 44.7581C248.748 43.4444 248.557 43.8855 248.746 43.2267C248.981 42.4095 249.059 41.8328 248.727 41.0499C248.468 40.4385 247.627 39.7534 247.627 39.7534L242.833 39.1421L239.344 38.5195C239.344 38.5195 236.946 38.105 236.079 38.548C235.212 38.9909 234.57 40.3027 234.57 40.3027C234.57 40.3027 233.526 42.2657 232.638 43.3673C231.883 44.3034 231.525 44.523 230.915 45.5593C230.37 46.4862 229.632 48.1828 229.632 48.1828L229.651 50.3596L230.528 51.005L232.704 50.986C232.704 50.986 235.525 46.2236 238.529 44.8397Z" fill="#0B4F6C"/>
<path d="M226.132 46.2541L223.954 46.0554L222.861 45.6296L222.842 43.4528L226.06 37.9823C226.06 37.9823 230.36 31.8493 232.526 30.5242C234.691 29.1992 241.89 30.8779 243.849 30.8608C245.808 30.8437 249.743 32.7686 249.743 32.7686L249.77 35.8161C249.77 35.8161 249.554 36.0357 248.687 36.4787C247.82 36.9216 236.916 34.6221 234.532 35.9491C232.149 37.2761 231.949 39.2371 230.444 41.4272C228.939 43.6173 226.574 45.6223 226.132 46.2541Z" fill="#0B4F6C"/>
<path d="M234.428 23.9768C237.057 25.9131 247.748 28.6498 247.735 27.1261C247.722 25.6023 247.496 24.7335 247.496 24.7335L242.647 17.8096L240.002 14.1318L232.364 12.0215C232.364 12.0215 226.913 10.9806 226.705 12.0709C226.497 13.1612 227.812 14.2382 227.812 14.2382C227.812 14.2382 231.799 22.0405 234.428 23.9768Z" fill="#0B4F6C"/>
<path d="M173.725 3.1665C173.929 1.17059 172.894 -0.433089 173.332 -1.95607C173.77 -3.47904 175.155 -3.64069 175.155 -3.64069C175.155 -3.64069 176.77 -4.17156 177.693 -3.59478C178.616 -3.01801 179.285 -0.802882 179.285 -0.802882C179.285 -0.802882 179.436 2.01358 178.939 3.85826C178.275 6.32635 176.379 9.18879 175.479 9.39654C174.579 9.6043 172.64 7.36621 172.64 7.36621C172.64 7.36621 173.552 4.85154 173.725 3.1665Z" fill="#0B4F6C"/>
<path d="M183.208 3.18869C182.715 6.81074 177.602 9.6963 178.248 11.1269C178.894 12.5575 178.625 12.1595 179.079 12.6728C179.642 13.3096 180.087 13.6854 180.925 13.8264C181.58 13.9365 182.609 13.5955 182.609 13.5955L185.701 9.88014L188.1 7.27245C188.1 7.27245 189.739 5.47248 189.831 4.50333C189.923 3.53418 189.161 2.28821 189.161 2.28821C189.161 2.28821 188.067 0.352468 187.615 -0.988259C187.231 -2.1275 187.238 -2.54783 186.692 -3.6187C186.203 -4.57651 185.169 -6.11063 185.169 -6.11063L183.323 -7.26419L182.307 -6.87183L181.154 -5.02574C181.154 -5.02574 183.655 -0.0877712 183.208 3.18869Z" fill="#0B4F6C"/>
<path d="M188.676 -8.02617L190.014 -9.7569L190.96 -10.4492L192.806 -9.29567L195.691 -3.64262C195.691 -3.64262 198.553 3.27955 198.507 5.81778C198.461 8.35601 193.178 13.5253 192.139 15.1867C191.101 16.8482 187.363 19.133 187.363 19.133L184.779 17.518C184.779 17.518 184.709 17.218 184.802 16.2489C184.894 15.2797 192.692 7.31817 192.854 4.59535C193.015 1.87252 191.469 0.649687 190.43 -1.79614C189.392 -4.24197 188.972 -7.31456 188.676 -8.02617Z" fill="#0B4F6C"/>
<path d="M203.007 10.94C199.961 12.1171 191.909 19.6633 193.201 20.4708C194.494 21.2783 195.347 21.5551 195.347 21.5551L203.793 21.1851L208.315 20.9308L214.199 15.6231C214.199 15.6231 218.006 11.5846 217.198 10.8232C216.39 10.0619 214.775 10.5927 214.775 10.5927C214.775 10.5927 206.053 9.76286 203.007 10.94Z" fill="#0B4F6C"/>
<path d="M203.844 -44.9932C203.844 -42.228 201.602 -39.9864 198.837 -39.9864C196.072 -39.9864 193.83 -42.228 193.83 -44.9932C193.83 -47.7584 196.072 -50 198.837 -50C201.602 -50 203.844 -47.7584 203.844 -44.9932Z" fill="#0B4F6C"/>
<path d="M169.014 2.02721C169.014 4.79239 166.772 7.03401 164.007 7.03401C161.242 7.03401 159 4.79239 159 2.02721C159 -0.737971 161.242 -2.97959 164.007 -2.97959C166.772 -2.97959 169.014 -0.737971 169.014 2.02721Z" fill="#0B4F6C"/>
<path d="M262.619 -38.4626C262.619 -35.6974 260.377 -33.4558 257.612 -33.4558C254.847 -33.4558 252.605 -35.6974 252.605 -38.4626C252.605 -41.2278 254.847 -43.4694 257.612 -43.4694C260.377 -43.4694 262.619 -41.2278 262.619 -38.4626Z" fill="#0B4F6C"/>
<path d="M287 15.0884C287 17.8536 284.758 20.0952 281.993 20.0952C279.228 20.0952 276.986 17.8536 276.986 15.0884C276.986 12.3233 279.228 10.0816 281.993 10.0816C284.758 10.0816 287 12.3233 287 15.0884Z" fill="#0B4F6C"/>
<path d="M250.864 61.2381C250.864 64.0033 248.622 66.2449 245.857 66.2449C243.092 66.2449 240.85 64.0033 240.85 61.2381C240.85 58.4729 243.092 56.2313 245.857 56.2313C248.622 56.2313 250.864 58.4729 250.864 61.2381Z" fill="#0B4F6C"/>
<path d="M193.83 56.0136C193.83 58.7788 191.588 61.0204 188.823 61.0204C186.058 61.0204 183.816 58.7788 183.816 56.0136C183.816 53.2484 186.058 51.0068 188.823 51.0068C191.588 51.0068 193.83 53.2484 193.83 56.0136Z" fill="#0B4F6C"/>
</svg>
